<?xml version="1.0" encoding="utf-8"?>
<!-- Generator: Adobe Illustrator 24.0.3, SVG Export Plug-In . SVG Version: 6.00 Build 0)  -->
<svg version="1.1" id="Слой_1" xmlns="http://www.w3.org/2000/svg" xmlns:xlink="http://www.w3.org/1999/xlink" x="0px" y="0px"
	 viewBox="0 0 2000 2000"  xml:space="preserve">
<style type="text/css">
	.st0{fill:#FFFFFF;}
	.st1{fill:#231F20;}
	.st2{fill:#E21936;}
</style>
<g>
	<g>
		<path class="st0" d="M984.74,1509.83V1418h22.22v29.02l-0.25,5.65h0.25c1.88-3.26,4.62-5.83,8.21-7.7
			c3.59-1.88,7.58-2.83,11.95-2.83c15.84,0,23.76,8.26,23.76,24.79v42.89h-22.22v-38.79c0-5.82-2.44-8.74-7.32-8.74
			c-4.62,0-8.18,1.62-10.66,4.88c-2.48,3.26-3.72,7.53-3.72,12.85v29.8H984.74z"/>
		<path class="st0" d="M1071.3,1515.86c2.4,1.62,4.67,2.44,6.81,2.44c5.31,0,8.86-2.22,10.66-6.67l1.29-3.08l-28.13-64.86h25.18
			l9.76,30.44l2.44,10.28h0.25c0.86-4.19,1.59-7.5,2.18-9.89l8.35-30.82h24.27l-27.1,73.2c-2.57,6.85-6.36,11.88-11.37,15.1
			c-5.01,3.21-10.43,4.82-16.24,4.82c-2.57,0-5.13-0.39-7.7-1.16c-2.57-0.78-4.5-1.54-5.78-2.31l-1.92-1.16L1071.3,1515.86z"/>
		<path class="st0" d="M1151.9,1501.8c-5.43-6.37-8.16-14.75-8.16-25.11c0-10.36,2.8-18.71,8.41-25.05
			c5.61-6.34,12.86-9.5,21.77-9.5c8.05,0,13.82,1.76,17.33,5.27h0.25c-0.08-0.86-0.13-1.84-0.13-2.95V1418h22.22v91.83h-20.81v-4.37
			l0.13-3.73h-0.25c-4.19,6.42-10.58,9.63-19.14,9.63C1164.55,1511.37,1157.33,1508.18,1151.9,1501.8z M1169.82,1465.13
			c-2.48,2.83-3.72,6.67-3.72,11.56c0,4.88,1.19,8.82,3.59,11.82c2.4,3,5.53,4.5,9.37,4.5c3.68,0,6.77-1.37,9.25-4.11
			c2.48-2.75,3.72-6.81,3.72-12.2c0-4.28-1.14-7.98-3.41-11.11c-2.27-3.13-5.46-4.69-9.57-4.69
			C1175.38,1460.89,1172.3,1462.3,1169.82,1465.13z"/>
		<path class="st0" d="M1234.93,1509.83v-66.14h21.32v11.17l-0.25,4.11h0.25c1.46-4.62,4.12-8.52,8.03-11.69
			c3.89-3.16,8.24-4.75,13.03-4.75c0.68,0,1.54,0.08,2.57,0.25v21.83c-0.76-0.25-2.27-0.38-4.5-0.38c-5.99,0-10.53,1.76-13.61,5.26
			c-3.08,3.51-4.62,8.39-4.62,14.64v25.69h-22.22V1509.83z"/>
		<path class="st0" d="M1302.61,1501.8c-7.19-6.37-10.79-14.66-10.79-24.85c0-10.18,3.59-18.54,10.79-25.05
			c7.19-6.51,16.06-9.76,26.59-9.76c10.61,0,19.55,3.23,26.78,9.7c7.23,6.46,10.86,14.84,10.86,25.11c0,10.2-3.59,18.48-10.79,24.85
			c-7.19,6.37-16.09,9.57-26.72,9.57C1318.7,1511.37,1309.8,1508.18,1302.61,1501.8z M1314.3,1476.95c0,4.8,1.46,8.64,4.37,11.56
			c2.91,2.92,6.46,4.37,10.66,4.37c4.19,0,7.75-1.46,10.66-4.37s4.37-6.75,4.37-11.56c0-4.88-1.46-8.82-4.37-11.82
			s-6.46-4.5-10.66-4.5c-4.19,0-7.75,1.49-10.66,4.5C1315.76,1468.13,1314.3,1472.07,1314.3,1476.95z"/>
		<path class="st0" d="M1381.08,1501.86l5.91-8.48c5.23,5.05,11.6,7.58,19.14,7.58c3.34,0,6.01-0.75,8.03-2.25
			c2-1.49,3.01-3.58,3.01-6.23c0-2.22-1.16-4.15-3.46-5.78c-2.31-1.62-5.1-3.04-8.35-4.24c-3.26-1.19-6.51-2.53-9.76-3.99
			c-3.26-1.46-6.04-3.58-8.34-6.36c-2.32-2.78-3.46-6.14-3.46-10.08c0-5.91,2.22-10.51,6.67-13.81c4.45-3.29,10.02-4.95,16.7-4.95
			c8.74,0,15.76,2.4,21.06,7.19l-5.01,8.99c-1.89-1.8-4.34-3.21-7.38-4.24s-6.06-1.54-9.06-1.54c-3.34,0-6.01,0.7-8.03,2.06
			c-2.02,1.37-3.01,3.38-3.01,6.04c0,2.31,1.16,4.28,3.46,5.91c2.32,1.62,5.1,3.02,8.35,4.17c3.26,1.16,6.52,2.47,9.82,3.92
			c3.29,1.46,6.11,3.58,8.41,6.36c2.31,2.78,3.46,6.14,3.46,10.08c0,5.57-2.18,10.15-6.55,13.74c-4.37,3.59-9.98,5.4-16.82,5.4
			C1395.6,1511.37,1387.34,1508.2,1381.08,1501.86z"/>
		<path class="st0" d="M1450.43,1535.51v-90.67H1462v5.78l-0.38,4.88h0.25c2.05-3.86,5.01-6.85,8.86-8.99
			c3.86-2.14,8.18-3.21,12.98-3.21c8.74,0,15.66,3.13,20.81,9.37c5.13,6.24,7.7,14.47,7.7,24.66c0,10.28-2.75,18.51-8.21,24.72
			c-5.48,6.21-12.55,9.32-21.19,9.32c-8.65,0-15.37-3.68-20.16-11.04h-0.25c0.34,1.54,0.51,3.43,0.51,5.65v29.54h-12.48V1535.51z
			 M1462.51,1477.59c0,6.16,1.65,11.54,4.95,16.12c3.29,4.58,7.77,6.87,13.42,6.87c5.31,0,9.76-2.07,13.36-6.23
			c3.59-4.15,5.39-9.78,5.39-16.89c0-7.02-1.69-12.65-5.07-16.89c-3.38-4.24-7.82-6.36-13.29-6.36c-5.31,0-9.76,1.97-13.36,5.91
			C1464.3,1464.06,1462.51,1469.89,1462.51,1477.59z"/>
		<path class="st0" d="M1534.05,1509.83v-90.67h12.45v33.65l-0.51,5.39h0.25c1.8-3.77,4.83-7.19,9.12-10.28
			c4.28-3.08,9.37-4.62,15.28-4.62c14.81,0,22.22,8.31,22.22,24.92v41.62h-12.45v-38.79c0-5.23-0.83-9.25-2.5-12.07
			c-1.67-2.83-4.9-4.24-9.7-4.24c-6.26,0-11.44,2.29-15.54,6.87c-4.11,4.58-6.16,10.38-6.16,17.4v30.82h-12.47V1509.83z"/>
		<path class="st0" d="M1613.67,1477.33c0-10.18,3.08-18.41,9.25-24.66s13.95-9.37,23.37-9.37c8.82,0,15.71,2.9,20.68,8.68
			c4.97,5.78,7.45,13.03,7.45,21.77c0,1.11-0.17,2.87-0.51,5.27h-47.26c0.34,6.77,2.63,12.05,6.87,15.86
			c4.24,3.81,9.4,5.71,15.48,5.71c7.1,0,13.49-2.53,19.14-7.58l5.26,9.12c-3.08,2.83-6.92,5.07-11.49,6.74
			c-4.59,1.67-9.14,2.5-13.68,2.5c-10.1,0-18.39-3.23-24.85-9.7C1616.9,1495.2,1613.67,1487.09,1613.67,1477.33z M1627.03,1470.01
			h34.8c-0.17-5.39-1.74-9.59-4.69-12.58s-6.66-4.5-11.11-4.5c-4.88,0-9.05,1.53-12.52,4.56
			C1630.03,1460.53,1627.89,1464.71,1627.03,1470.01z"/>
		<path class="st0" d="M1695.87,1509.83v-64.99h12.07v11.69l-0.38,4.75h0.25c1.62-4.96,4.28-9.07,7.96-12.33
			c3.68-3.26,7.91-4.88,12.71-4.88c0.86,0,1.97,0.09,3.34,0.25v12.33c-0.68-0.17-1.89-0.25-3.59-0.25c-6.51,0-11.45,2.63-14.83,7.9
			c-3.38,5.26-5.07,11.45-5.07,18.56v26.97h-12.45V1509.83z"/>
		<path class="st0" d="M1744.67,1477.33c0-10.18,3.08-18.41,9.25-24.66s13.95-9.37,23.37-9.37c8.82,0,15.71,2.9,20.68,8.68
			c4.97,5.78,7.45,13.03,7.45,21.77c0,1.11-0.17,2.87-0.51,5.27h-47.26c0.34,6.77,2.63,12.05,6.87,15.86
			c4.24,3.81,9.4,5.71,15.48,5.71c7.1,0,13.49-2.53,19.14-7.58l5.26,9.12c-3.08,2.83-6.92,5.07-11.49,6.74
			c-4.59,1.67-9.14,2.5-13.68,2.5c-10.1,0-18.39-3.23-24.85-9.7C1747.91,1495.2,1744.67,1487.09,1744.67,1477.33z M1758.03,1470.01
			h34.8c-0.17-5.39-1.74-9.59-4.69-12.58c-2.95-2.99-6.66-4.5-11.11-4.5c-4.88,0-9.05,1.53-12.52,4.56
			C1761.06,1460.53,1758.89,1464.71,1758.03,1470.01z"/>
		<path class="st0" d="M1826.23,1509.83v-13.49h13.36v13.49H1826.23z"/>
		<path class="st0" d="M1864.62,1509.83v-64.99h12.45v64.99H1864.62z"/>
		<path class="st0" d="M1898.41,1477.2c0-9.67,3.38-17.74,10.15-24.21c6.77-6.46,15.03-9.7,24.78-9.7c9.85,0,18.16,3.21,24.91,9.63
			c6.77,6.42,10.15,14.52,10.15,24.27c0,9.76-3.38,17.9-10.15,24.4c-6.77,6.51-15.03,9.77-24.78,9.77s-18.04-3.26-24.85-9.77
			C1901.8,1495.1,1898.41,1486.97,1898.41,1477.2z M1911.12,1477.2c0,6.77,2.16,12.35,6.49,16.77c4.32,4.41,9.6,6.62,15.86,6.62
			c6.16,0,11.44-2.22,15.79-6.67c4.37-4.45,6.55-10.02,6.55-16.7s-2.19-12.2-6.55-16.57c-4.37-4.37-9.63-6.55-15.79-6.55
			c-6.26,0-11.54,2.18-15.86,6.55C1913.28,1465,1911.12,1470.53,1911.12,1477.2z"/>
	</g>
</g>
<path class="st1" d="M192.05,1330c-53.27,0-91.56-16.59-115.12-49.9c-23.44-33.31-35.16-81.81-35.16-145.52V951
	c0-32.38,2.55-60.34,7.66-83.79c5.11-23.44,13.69-44.1,25.65-61.74c12.07-17.64,28.55-30.98,49.67-39.8s46.88-13.23,77.52-13.23
	c55.7,0,95.74,13.69,119.99,40.96s36.44,68.7,36.44,124.29v27.5h-98.29v-29.24c0-12.42-0.23-22.63-0.81-30.64
	c-0.58-7.89-1.97-15.9-4.18-23.91c-2.09-8.01-5.22-14.27-9.28-18.57c-4.06-4.29-9.63-7.77-16.71-10.56
	c-6.96-2.67-15.55-4.06-25.76-4.06c-7.77,0-14.62,1.05-20.66,2.9c-5.92,1.97-11.02,4.29-15.09,7.19
	c-4.06,2.79-7.54,6.85-10.33,12.07c-2.9,5.22-4.99,10.21-6.5,15.09c-1.51,4.87-2.55,11.14-3.37,18.91
	c-0.81,7.66-1.28,14.51-1.51,20.31c-0.23,5.92-0.35,13.58-0.35,22.86v227.45c0,34,4.18,58.84,12.53,74.62
	c8.36,15.67,24.37,23.56,47.93,23.56c12.3,0,22.51-2.32,30.75-6.96c8.36-4.64,14.74-11.6,19.38-21c4.64-9.4,8.01-20.19,9.86-32.38
	c1.97-12.07,2.9-26.81,2.9-43.98v-46.3H208.4v-66.26h153.3v286.29h-66.61l-7.54-57.09C270.61,1308.54,238.7,1330,192.05,1330"/>
<path class="st2" d="M798.62,1322.58V920.01h95.16v402.56h-95.16V1322.58z M798.62,856.42V755h95.5v101.42H798.62z M409.98,1322.58
	l114.66-563.64h106.99l114.3,563.64h-95.51l-22.86-130.9h-97.48l-23.21,130.9H409.98z M540.88,1124.72h75.55L578.6,893.21
	L540.88,1124.72z"/>
<path class="st1" d="M971.74,1321.05l114.65-563.64h107l114.3,563.64h-95.51l-22.86-130.9h-97.48l-23.2,130.9H971.74z
	 M1102.64,1123.19h75.55l-37.83-231.51L1102.64,1123.19z"/>
<path class="st1" d="M883.84,1528.29v-5.96c4.69,0,8.32-0.37,10.93-1.13c2.59-0.78,4.3-1.8,5.13-3.05c0.85-1.27,1.27-2.98,1.27-5.15
	c0-0.72-0.02-1.29-0.07-1.69c-0.14-1.41-0.9-5.11-2.31-11.11c-2.61-10.72-8.2-34.72-16.77-72.01h7.23l15.85,73.17l15.16-73.17h7.37
	l-19.57,86.71c-1.06,4.74-3.26,8.16-6.56,10.26c-3.28,2.11-8.16,3.14-14.6,3.14h-3.06V1528.29z M853.5,1509.62
	c-5.54,0-10.42-2.66-14.62-7.92v6.63h-7.37v-112.22h7.37v38.84c4.11-5.36,9.24-8.04,15.36-8.04c2.89,0,5.41,0.51,7.56,1.55
	s3.88,2.45,5.2,4.28c1.34,1.8,2.4,4.11,3.23,6.95c0.81,2.84,1.36,5.89,1.64,9.1c0.3,3.24,0.44,6.98,0.44,11.2v15.36
	c0,11.74-1.38,20.38-4.18,25.92C865.33,1506.85,860.46,1509.62,853.5,1509.62z M852.62,1503.87c4.83,0,8.09-2.17,9.77-6.47
	c1.69-4.32,2.54-11.6,2.54-21.83v-15.64c0-10.1-0.81-17.17-2.4-21.21c-1.59-4.04-4.85-6.05-9.77-6.05c-4.74,0-9.38,2.47-13.89,7.44
	v56.51C842.85,1501.45,847.43,1503.87,852.62,1503.87z M767.81,1509.62c-6.86,0-11.71-2.63-14.56-7.9
	c-2.84-5.25-4.27-14.03-4.27-26.29v-14.28c0-11.92,1.34-20.61,3.97-26.06c2.63-5.45,7.48-8.18,14.51-8.18
	c5.64,0.05,10.49,2.52,14.55,7.44v-38.24h7.37v112.22h-7.37v-6.1C777.95,1507.15,773.22,1509.62,767.81,1509.62z M768.89,1503.87
	c4.73,0,9.1-2.26,13.12-6.77v-57.48c-4.55-4.64-9.03-6.95-13.4-6.95c-4.92,0-8.18,1.99-9.82,5.94c-1.62,3.97-2.43,10.91-2.43,20.79
	v16.66c0,10.09,0.86,17.26,2.61,21.49C760.72,1501.75,764.02,1503.87,768.89,1503.87z M716.84,1509.62c-2.66,0-5.01-0.3-7.05-0.85
	c-2.01-0.56-3.91-1.55-5.64-2.94c-1.73-1.41-3.17-3.26-4.28-5.57c-1.11-2.29-1.96-5.25-2.56-8.85c-0.6-3.63-0.93-7.85-0.93-12.73
	v-21.4c0-4.92,0.32-9.17,0.95-12.8c0.65-3.6,1.5-6.52,2.61-8.76s2.56-4.02,4.34-5.36c1.78-1.32,3.65-2.24,5.64-2.73
	c1.99-0.51,4.34-0.74,7.05-0.74c7.35,0,12.48,2.4,15.36,7.21c2.89,4.81,4.34,13.03,4.34,24.65l-0.14,7.67h-32.76v12.78
	c0,9.43,0.97,15.94,2.93,19.5s5.31,5.34,10.05,5.34c1.36,0,2.54-0.07,3.56-0.25s2.13-0.6,3.35-1.25c1.22-0.67,2.22-1.57,2.98-2.73
	c0.76-1.13,1.41-2.8,1.92-4.94c0.53-2.13,0.78-4.69,0.78-7.67v-5.96h7.26v5.29c0,7.39-1.52,13.1-4.55,17.07
	C729.04,1507.61,723.98,1509.62,716.84,1509.62z M703.79,1462.03h25.58v-6.21c0-3.21-0.07-5.87-0.21-7.99
	c-0.12-2.13-0.44-4.25-0.95-6.38c-0.48-2.1-1.18-3.76-2.06-4.97c-0.88-1.2-2.08-2.17-3.63-2.91c-1.53-0.74-3.37-1.11-5.55-1.11
	c-3.21,0-5.71,0.62-7.51,1.85c-1.8,1.25-3.21,3.6-4.2,7.05c-0.99,3.44-1.48,8.32-1.48,14.58v6.09H703.79z M659.73,1508.33v-80.15
	h7.3v10.83c2.26-3.74,5.15-6.63,8.66-8.64c3.51-1.99,6.95-3,10.28-3c0.05,0,0.28,0.02,0.65,0.05c0.39,0.02,0.62,0.02,0.72,0.02v7.65
	c-0.81-0.28-1.8-0.42-2.98-0.42c-7.49,0-13.26,3.47-17.33,10.37v63.28h-7.3V1508.33z M625,1509.62c-2.66,0-5.02-0.3-7.05-0.85
	c-2.01-0.56-3.9-1.55-5.64-2.94c-1.73-1.41-3.16-3.26-4.27-5.57c-1.11-2.29-1.96-5.25-2.56-8.85c-0.6-3.63-0.93-7.85-0.93-12.73
	v-21.4c0-4.92,0.32-9.17,0.95-12.8c0.65-3.6,1.5-6.52,2.61-8.76s2.56-4.02,4.34-5.36c1.78-1.32,3.65-2.24,5.64-2.73
	c1.99-0.51,4.34-0.74,7.05-0.74c7.35,0,12.48,2.4,15.36,7.21c2.89,4.81,4.34,13.03,4.34,24.65l-0.14,7.67h-32.76v12.78
	c0,9.43,0.97,15.94,2.93,19.5s5.31,5.34,10.05,5.34c1.36,0,2.54-0.07,3.56-0.25s2.13-0.6,3.35-1.25c1.22-0.67,2.22-1.57,2.98-2.73
	c0.76-1.13,1.41-2.8,1.92-4.94c0.53-2.13,0.78-4.69,0.78-7.67v-5.96h7.26v5.29c0,7.39-1.52,13.1-4.55,17.07
	C637.2,1507.61,632.14,1509.62,625,1509.62z M611.95,1462.03h25.58v-6.21c0-3.21-0.07-5.87-0.21-7.99
	c-0.12-2.13-0.44-4.25-0.95-6.38c-0.49-2.1-1.18-3.76-2.06-4.97c-0.88-1.2-2.08-2.17-3.63-2.91c-1.53-0.74-3.37-1.11-5.54-1.11
	c-3.21,0-5.71,0.62-7.51,1.85c-1.8,1.25-3.21,3.6-4.21,7.05c-0.99,3.44-1.48,8.32-1.48,14.58v6.09H611.95z M537.5,1508.33
	l-13.28-80.15h6.52l11.16,71.76l13.68-71.76h7.16l14.02,71.41l10.42-71.41h6.49l-12.8,80.15h-7.65L559.29,1438l-13.47,70.33H537.5z
	 M488.18,1503.36c1.43,0.46,3.07,0.69,4.97,0.69c1.89,0,3.56-0.23,4.99-0.69c1.41-0.48,2.59-1.25,3.51-2.31
	c0.93-1.06,1.69-2.22,2.26-3.49c0.6-1.27,1.04-2.91,1.32-4.97c0.3-2.06,0.48-4.04,0.58-5.98c0.09-1.94,0.14-4.37,0.14-7.26v-22.2
	c0-3.47-0.07-6.33-0.21-8.55c-0.12-2.24-0.44-4.48-0.95-6.7c-0.48-2.24-1.18-4-2.08-5.27c-0.92-1.25-2.15-2.26-3.74-3.03
	c-1.57-0.78-3.51-1.15-5.82-1.15c-2.29,0-4.23,0.37-5.82,1.15c-1.57,0.76-2.82,1.78-3.72,3.03c-0.9,1.27-1.59,3.03-2.08,5.27
	c-0.51,2.22-0.83,4.46-0.95,6.7c-0.14,2.22-0.21,5.08-0.21,8.55v22.2c0,2.89,0.04,5.31,0.14,7.26c0.09,1.94,0.28,3.93,0.55,5.98
	c0.3,2.06,0.74,3.7,1.34,4.97c0.58,1.27,1.34,2.43,2.27,3.49C485.59,1502.12,486.77,1502.88,488.18,1503.36z M509,1502.3
	c-2.89,4.88-8.18,7.32-15.85,7.32s-12.94-2.45-15.83-7.32c-2.89-4.88-4.34-12.61-4.34-23.22v-21.65c0-10.56,1.46-18.3,4.37-23.2
	c2.91-4.87,8.18-7.32,15.8-7.32c3.93,0,7.21,0.62,9.87,1.9c2.63,1.25,4.71,3.23,6.21,5.91c1.53,2.68,2.59,5.82,3.19,9.45
	c0.6,3.6,0.9,8.02,0.9,13.26v21.65C513.32,1489.69,511.88,1497.43,509,1502.3z M409.69,1508.33v-112.22h26.34
	c4.92,0,9.1,0.69,12.59,2.12c3.47,1.41,6.17,3.47,8.09,6.15c1.92,2.7,3.3,5.73,4.16,9.08c0.85,3.37,1.29,7.23,1.29,11.6
	c0,3.12-0.25,6.05-0.74,8.8c-0.51,2.75-1.39,5.43-2.66,8.04c-1.25,2.59-2.84,4.81-4.76,6.7c-1.92,1.87-4.39,3.35-7.42,4.46
	c-3.03,1.11-6.47,1.66-10.35,1.66h-18.97v53.6h-7.57V1508.33z M417.27,1448.84h17.26c6.91,0,11.97-1.82,15.13-5.45
	c3.19-3.63,4.78-9.73,4.78-18.32c0-8.87-1.48-14.95-4.41-18.23c-2.94-3.28-8.04-4.9-15.36-4.9h-17.4L417.27,1448.84L417.27,1448.84z
	"/>
<path class="st1" d="M864.29,688.46c-5.59-0.05-10.18-2.26-13.77-6.59s-5.38-9.23-5.38-14.67c0-5.18,0.87-9.67,2.56-13.54
	c1.69-3.85,4.49-7.15,8.38-9.92c3.87-2.74,7.1-4.74,9.64-6c2.56-1.26,6.49-2.9,11.79-4.95c1.51-0.62,2.64-1.05,3.38-1.36V624
	c0-4-0.46-6.95-1.38-8.79c-0.92-1.85-2.82-2.77-5.67-2.77c-4.67,0-7.05,3.26-7.15,9.77l-0.31,5.54l-20.13-0.74
	c0-0.31,0.03-0.85,0.05-1.64c0.03-0.82,0.03-1.33,0.03-1.59c0.67-9.31,3.44-16.15,8.31-20.51s11.85-6.51,20.92-6.51
	c8.77,0,15.26,2.36,19.49,7.13c4.23,4.74,6.36,11.49,6.36,20.2v40.64c0,6.79,0.54,14.26,1.64,22.31h-19
	c-1.15-5.82-1.87-10.15-2.18-13.08c-1.26,4.1-3.33,7.56-6.28,10.33C872.67,687.05,868.91,688.46,864.29,688.46 M872.34,672.15
	c1.59,0,3.18-0.62,4.77-1.79c1.56-1.2,2.85-2.44,3.79-3.69v-24.49c-10.41,5.77-15.61,12.28-15.61,19.61c0,3.2,0.59,5.72,1.82,7.59
	C868.34,671.23,870.08,672.15,872.34,672.15z M794.14,687.03v-88.94h21.05v13.67c2.95-5.26,5.92-9.03,8.97-11.33
	c3.02-2.31,6.26-3.46,9.72-3.46c1.05,0,2.1,0.13,3.15,0.38v20.79c-2.36-0.9-4.77-1.33-7.28-1.33c-3,0.1-5.64,0.85-7.92,2.26
	c-2.28,1.38-4.51,3.72-6.64,6.97v61L794.14,687.03L794.14,687.03z M741.27,688.46c-7.28,0-12.72-2.59-16.31-7.74
	c-3.61-5.15-5.41-13.36-5.41-24.56v-25.84c0-4.74,0.36-9.05,1.08-12.92c0.74-3.85,1.9-7.38,3.46-10.59c1.59-3.2,3.79-5.69,6.64-7.44
	c2.87-1.74,6.28-2.62,10.23-2.62c5.62,0,10.87,2.26,15.77,6.82V562.5h21.02v124.53h-21.01v-6.08
	C751.99,685.9,746.81,688.41,741.27,688.46z M748.63,673.44c2.54,0,5.26-0.82,8.1-2.41v-56.79c-2.85-1.79-5.59-2.69-8.18-2.69
	c-2.82,0-4.82,1.26-6.05,3.82s-1.85,5.82-1.85,9.77v32.59c0,3.21,0.18,5.87,0.54,7.97c0.33,2.1,1.13,3.92,2.36,5.44
	C744.79,672.67,746.48,673.44,748.63,673.44z M648.18,687.03v-88.94h21.05v8.72c7.15-6.72,14.38-10.05,21.69-10.05
	c5.08,0,8.77,1.85,11.1,5.54c2.31,3.72,3.49,8.28,3.49,13.69v71.05h-21.02v-66.41c0-2.79-0.41-4.87-1.21-6.23
	c-0.82-1.36-2.36-2-4.67-1.95c-2.62,0.05-5.74,1.41-9.38,4.05v70.53H648.18z M610.64,687.03v-88.94h21.02v88.94H610.64z
	 M610.64,584.03v-17.72h21.1v17.72H610.64z M536.73,687.03V562.5h20.97v44.23c7-6.67,14.38-9.97,22.15-9.97c2.1,0,4,0.36,5.67,1.08
	c1.67,0.72,3.05,1.69,4.13,2.92s1.97,2.69,2.72,4.36c0.72,1.69,1.23,3.41,1.54,5.18c0.28,1.79,0.44,3.67,0.44,5.69v71.05H573.4
	v-66.41c0-2.79-0.41-4.87-1.26-6.23c-0.82-1.36-2.38-2-4.69-1.95c-2.74,0.05-6,1.49-9.74,4.36v70.23L536.73,687.03L536.73,687.03z
	 M483.83,688.46c-5.59-0.05-10.18-2.26-13.77-6.59s-5.38-9.23-5.38-14.67c0-5.18,0.87-9.67,2.56-13.54
	c1.69-3.85,4.49-7.15,8.38-9.92c3.87-2.74,7.1-4.74,9.64-6c2.56-1.26,6.49-2.9,11.79-4.95c1.51-0.62,2.64-1.05,3.38-1.36V624
	c0-4-0.46-6.95-1.38-8.79c-0.92-1.85-2.82-2.77-5.67-2.77c-4.67,0-7.05,3.26-7.15,9.77l-0.31,5.54l-20.13-0.74
	c0-0.31,0.03-0.85,0.05-1.64c0.03-0.82,0.03-1.33,0.03-1.59c0.67-9.31,3.44-16.15,8.31-20.51s11.85-6.51,20.92-6.51
	c8.77,0,15.26,2.36,19.49,7.13c4.23,4.74,6.36,11.49,6.36,20.2v40.64c0,6.79,0.54,14.26,1.64,22.31h-19
	c-1.15-5.82-1.87-10.15-2.18-13.08c-1.26,4.1-3.33,7.56-6.28,10.33C492.22,687.05,488.45,688.46,483.83,688.46z M491.88,672.15
	c1.59,0,3.18-0.62,4.77-1.79c1.56-1.2,2.85-2.44,3.79-3.69v-24.49c-10.41,5.77-15.61,12.28-15.61,19.61c0,3.2,0.59,5.72,1.82,7.59
	C487.88,671.23,489.63,672.15,491.88,672.15z M362.84,687.03l2.03-124.53h23.28l18.02,87.51l18.56-87.51h22.74l2.1,124.53h-17.13
	l-1.49-85.79L413,687.03h-13.31l-18.18-86.07l-1.36,86.07H362.84z M250.98,687.03V562.5h20.97v44.23c7-6.67,14.38-9.97,22.15-9.97
	c2.1,0,4,0.36,5.67,1.08c1.67,0.72,3.05,1.69,4.13,2.92c1.08,1.23,1.97,2.69,2.72,4.36c0.72,1.69,1.23,3.41,1.54,5.18
	c0.28,1.79,0.44,3.67,0.44,5.69v71.05h-20.96v-66.41c0-2.79-0.41-4.87-1.26-6.23c-0.82-1.36-2.38-2-4.69-1.95
	c-2.74,0.05-6,1.49-9.74,4.36v70.23L250.98,687.03L250.98,687.03z M209.75,688.46c-10.08,0-17.31-2.85-21.72-8.49
	c-4.41-5.67-6.62-13.85-6.62-24.56v-25.77c0-10.72,2.21-18.9,6.62-24.49c4.41-5.62,11.64-8.41,21.72-8.41
	c9.46,0,16.33,2.21,20.61,6.67c4.28,4.46,6.41,11.38,6.41,20.74v7.2h-19.59v-7.59c0-4.51-0.54-7.64-1.62-9.41
	c-1.08-1.79-2.95-2.67-5.62-2.67c-2.95,0-4.95,1.05-5.97,3.15c-1.03,2.1-1.54,6-1.54,11.72v32.43c0,5.67,0.56,9.49,1.69,11.46
	c1.13,1.97,3.08,2.97,5.82,2.97c2.82,0,4.72-0.97,5.72-2.9c1-1.92,1.51-4.85,1.51-8.74v-9.54h19.59v8.41
	c0,9.2-2.18,16.15-6.56,20.79C225.83,686.13,219.01,688.46,209.75,688.46z M141.29,688.46c-10.15,0-17.46-2.82-21.92-8.41
	c-4.46-5.62-6.69-13.9-6.69-24.87V630c0-10.95,2.26-19.26,6.77-24.84c4.49-5.62,11.77-8.41,21.77-8.41c5.31,0,9.79,0.77,13.41,2.31
	c3.64,1.56,6.46,3.92,8.49,7.08c2.03,3.15,3.49,6.79,4.33,10.92c0.85,4.13,1.28,9.1,1.28,14.92v11.64h-35.18v13.36
	c0,1.85,0.03,3.31,0.05,4.33c0.03,1.03,0.1,2.26,0.26,3.72c0.15,1.44,0.38,2.56,0.72,3.36c0.33,0.82,0.77,1.62,1.31,2.46
	c0.56,0.82,1.28,1.41,2.18,1.74c0.9,0.36,1.95,0.54,3.15,0.54c2.82,0,4.77-1,5.87-2.97c1.1-1.97,1.64-4.85,1.64-8.59v-5.1h19.92
	v3.51c0,9.23-2.31,16.28-6.87,21.15C157.19,686,150.37,688.46,141.29,688.46z M133.55,633.08h15.18v-8.49
	c0-4.49-0.56-7.72-1.69-9.69c-1.13-1.95-3.1-2.92-5.97-2.92c-2.9,0-4.87,1.1-5.92,3.31s-1.59,6.2-1.59,12.03L133.55,633.08
	L133.55,633.08z M62.81,687.03V579.24h-20.9V562.5h63.79v16.74H85.5v107.79H62.81z"/>
</svg>
