<svg viewBox="0 0 14 15">
    <path fill="currentColor" d="M13.000,4.000 L11.000,4.000 L3.000,4.000 L1.000,4.000 C0.448,4.000 -0.000,3.552 -0.000,3.000 C-0.000,2.448 0.448,2.000 1.000,2.000 L3.000,2.000 L3.000,-0.000 L11.000,-0.000 L11.000,2.000 L13.000,2.000 C13.552,2.000 14.000,2.448 14.000,3.000 C14.000,3.552 13.552,4.000 13.000,4.000 ZM11.000,15.000 L3.000,15.000 L1.000,5.000 L13.000,5.000 L11.000,15.000 ZM6.000,8.000 C6.000,7.448 5.552,7.000 5.000,7.000 C4.448,7.000 4.000,7.448 4.000,8.000 L4.000,12.000 C4.000,12.552 4.448,13.000 5.000,13.000 C5.552,13.000 6.000,12.552 6.000,12.000 L6.000,8.000 ZM10.000,8.000 C10.000,7.448 9.552,7.000 9.000,7.000 C8.448,7.000 8.000,7.448 8.000,8.000 L8.000,12.000 C8.000,12.552 8.448,13.000 9.000,13.000 C9.552,13.000 10.000,12.552 10.000,12.000 L10.000,8.000 Z"
    />
</svg>