<svg viewBox="0 0 199 184">
    <path fill="currentColor" d="m0,25l0,25l50,0l0,-16l63.4,0c34.9,0 64.2,0.3 65.1,0.6c3.7,1.5 4.5,5.6 4.5,24.4l0,18.2l-2.9,2.9c-2.5,2.4 -3.7,2.9 -8,2.9l-5.1,0l0,-17l-25,12.5l-25,12.5l0,-25l-51,0l0,17l-22.6,0c-14.5,0 -24.1,0.4 -26.6,1.2c-5.1,1.5 -12.6,8.2 -14.9,13.3c-1.6,3.5 -1.9,6.8 -1.9,27.5s0.3,24 1.9,27.5c2.3,5.1 9.8,11.8 14.9,13.3c2.7,0.8 16,1.2 43.1,1.2l39.1,0l0,8.5c0,4.7 0.2,8.5 0.5,8.5s11.3,-5.4 24.5,-12s24.2,-12 24.5,-12c0.3,0 0.5,5.4 0.5,12l0,12l51,0l0,-51l-51,0l0,24l-24,-12c-13.2,-6.6 -24.4,-12 -25,-12c-0.6,0 -1,3.3 -1,8l0,8l-77.9,0l-2,-2.6c-2,-2.5 -2.1,-4 -2.1,-21.5c0,-18.4 0,-18.8 2.4,-21.6l2.4,-2.8l22.1,-0.3l22.1,-0.3l0,17.1l51,0l0,-12c0,-6.6 0.2,-12 0.5,-12s11.3,5.4 24.5,12s24.2,12 24.5,12c0.3,0 0.5,-3.8 0.5,-8.4l0,-8.4l8.3,-0.3c7.2,-0.4 9,-0.8 13.3,-3.4c3,-1.9 6,-4.9 7.9,-7.9l3,-4.9l0.3,-24.3c0.3,-23.1 0.2,-24.4 -1.9,-28.8c-1.2,-2.6 -4,-6.2 -6.2,-8.1c-7.6,-6.5 -7.1,-6.5 -77.9,-6.5l-63.8,0l0,-16l-50,0l0,25zm33,0l0,8l-16,0l0,-16l16,0l0,8zm66,66.5l0,7.5l-15,0l0,-15l15,0l0,7.5zm84,66.5l0,8l-16,0l0,-16l16,0l0,8z"
    />
</svg>
