<svg xmlns="http://www.w3.org/2000/svg" xmlns:xlink="http://www.w3.org/1999/xlink" width="28" height="28" viewBox="0 0 28 28"><defs><path id="aa" d="M1034 41a4 4 0 1 1 8 0 4 4 0 1 1-8 0z"/><path id="bb" d="M1014 41a4 4 0 1 1 8 0 4 4 0 1 1-8 0z"/><path id="cc" d="M1024 51a4 4 0 1 1 8 0 4 4 0 1 1-8 0z"/><path id="dd" d="M1024 31a4 4 0 1 1 8 0 4 4 0 1 1-8 0z"/><path id="e" d="M1039 45v7h-7"/><path id="f" d="M1024 52h-7v-7"/><path id="gg" d="M1017 37v-7h7"/><path id="hh" d="M1032 30h7v7"/><clipPath id="ii"><use fill="#fff" xlink:href="#aa"/></clipPath><clipPath id="j"><use fill="#fff" xlink:href="#bb"/></clipPath><clipPath id="k"><use fill="#fff" xlink:href="#cc"/></clipPath><clipPath id="l"><use fill="#fff" xlink:href="#dd"/></clipPath><clipPath id="m"><use fill="#fff" xlink:href="#ee"/></clipPath><clipPath id="n"><use fill="#fff" xlink:href="#ff"/></clipPath><clipPath id="o"><use fill="#fff" xlink:href="#gg"/></clipPath><clipPath id="p"><use fill="#fff" xlink:href="#hh"/></clipPath></defs><g transform="translate(-1014 -27)"><use fill="#fff" fill-opacity="0" stroke="#475f9e" stroke-miterlimit="50" stroke-width="4" clip-path="url(&quot;#ii&quot;)" xlink:href="#aa"/><use fill="#fff" fill-opacity="0" stroke="#475f9e" stroke-miterlimit="50" stroke-width="4" clip-path="url(&quot;#j&quot;)" xlink:href="#bb"/><use fill="#fff" fill-opacity="0" stroke="#475f9e" stroke-miterlimit="50" stroke-width="4" clip-path="url(&quot;#k&quot;)" xlink:href="#cc"/><use fill="#fff" fill-opacity="0" stroke="#475f9e" stroke-miterlimit="50" stroke-width="4" clip-path="url(&quot;#l&quot;)" xlink:href="#dd"/><g><use fill="#fff" fill-opacity="0" stroke="#475f9e" stroke-miterlimit="50" stroke-width="4" clip-path="url(&quot;#m&quot;)" xlink:href="#ee"/></g><g><use fill="#fff" fill-opacity="0" stroke="#475f9e" stroke-miterlimit="50" stroke-width="4" clip-path="url(&quot;#n&quot;)" xlink:href="#ff"/></g><g><use fill="#fff" fill-opacity="0" stroke="#475f9e" stroke-miterlimit="50" stroke-width="4" clip-path="url(&quot;#o&quot;)" xlink:href="#gg"/></g><g><use fill="#fff" fill-opacity="0" stroke="#475f9e" stroke-miterlimit="50" stroke-width="4" clip-path="url(&quot;#p&quot;)" xlink:href="#hh"/></g></g></svg>
