<svg width="1928" height="975" viewBox="0 0 1928 975" fill="none" xmlns="http://www.w3.org/2000/svg">
<path d="M943.74 947.83V856H965.96V885.02L965.71 890.67H965.96C967.84 887.41 970.58 884.84 974.17 882.97C977.76 881.09 981.75 880.14 986.12 880.14C1001.96 880.14 1009.88 888.4 1009.88 904.93V947.82H987.66V909.03C987.66 903.21 985.22 900.29 980.34 900.29C975.72 900.29 972.16 901.91 969.68 905.17C967.2 908.43 965.96 912.7 965.96 918.02V947.82H943.74V947.83Z" fill="#186FAF"/>
<path d="M1030.3 953.859C1032.7 955.479 1034.97 956.3 1037.11 956.3C1042.42 956.3 1045.97 954.08 1047.77 949.63L1049.06 946.55L1020.93 881.689H1046.11L1055.87 912.13L1058.31 922.41H1058.56C1059.42 918.22 1060.15 914.91 1060.74 912.52L1069.09 881.699H1093.36L1066.26 954.9C1063.69 961.75 1059.9 966.78 1054.89 970C1049.88 973.21 1044.46 974.819 1038.65 974.819C1036.08 974.819 1033.52 974.43 1030.95 973.66C1028.38 972.88 1026.45 972.119 1025.17 971.349L1023.25 970.189L1030.3 953.859Z" fill="#186FAF"/>
<path d="M1110.9 939.8C1105.47 933.43 1102.74 925.05 1102.74 914.69C1102.74 904.33 1105.54 895.98 1111.15 889.64C1116.76 883.3 1124.01 880.14 1132.92 880.14C1140.97 880.14 1146.74 881.9 1150.25 885.41H1150.5C1150.42 884.55 1150.37 883.57 1150.37 882.46V856H1172.59V947.83H1151.78V943.46L1151.91 939.73H1151.66C1147.47 946.15 1141.08 949.36 1132.52 949.36C1123.55 949.37 1116.33 946.18 1110.9 939.8ZM1128.82 903.13C1126.34 905.96 1125.1 909.8 1125.1 914.69C1125.1 919.57 1126.29 923.51 1128.69 926.51C1131.09 929.51 1134.22 931.01 1138.06 931.01C1141.74 931.01 1144.83 929.64 1147.31 926.9C1149.79 924.15 1151.03 920.09 1151.03 914.7C1151.03 910.42 1149.89 906.72 1147.62 903.59C1145.35 900.46 1142.16 898.9 1138.05 898.9C1134.38 898.89 1131.3 900.3 1128.82 903.13Z" fill="#186FAF"/>
<path d="M1193.93 947.829V881.689H1215.25V892.859L1215 896.969H1215.25C1216.71 892.349 1219.37 888.449 1223.28 885.279C1227.17 882.119 1231.52 880.529 1236.31 880.529C1236.99 880.529 1237.85 880.609 1238.88 880.779V902.609C1238.12 902.359 1236.61 902.229 1234.38 902.229C1228.39 902.229 1223.85 903.989 1220.77 907.489C1217.69 910.999 1216.15 915.879 1216.15 922.129V947.819H1193.93V947.829Z" fill="#186FAF"/>
<path d="M1261.61 939.801C1254.42 933.431 1250.82 925.141 1250.82 914.951C1250.82 904.771 1254.41 896.411 1261.61 889.901C1268.8 883.391 1277.67 880.141 1288.2 880.141C1298.81 880.141 1307.75 883.371 1314.98 889.841C1322.21 896.301 1325.84 904.681 1325.84 914.951C1325.84 925.151 1322.25 933.431 1315.05 939.801C1307.86 946.171 1298.96 949.371 1288.33 949.371C1277.7 949.371 1268.8 946.181 1261.61 939.801ZM1273.3 914.951C1273.3 919.751 1274.76 923.591 1277.67 926.511C1280.58 929.431 1284.13 930.881 1288.33 930.881C1292.52 930.881 1296.08 929.421 1298.99 926.511C1301.9 923.601 1303.36 919.761 1303.36 914.951C1303.36 910.071 1301.9 906.131 1298.99 903.131C1296.08 900.131 1292.53 898.631 1288.33 898.631C1284.14 898.631 1280.58 900.121 1277.67 903.131C1274.76 906.131 1273.3 910.071 1273.3 914.951Z" fill="#186FAF"/>
<path d="M1340.08 939.859L1345.99 931.38C1351.22 936.43 1357.59 938.959 1365.13 938.959C1368.47 938.959 1371.14 938.209 1373.16 936.709C1375.16 935.219 1376.17 933.129 1376.17 930.479C1376.17 928.259 1375.01 926.329 1372.71 924.699C1370.4 923.079 1367.61 921.659 1364.36 920.459C1361.1 919.269 1357.85 917.929 1354.6 916.469C1351.34 915.009 1348.56 912.889 1346.26 910.109C1343.94 907.329 1342.8 903.97 1342.8 900.03C1342.8 894.12 1345.02 889.519 1349.47 886.219C1353.92 882.929 1359.49 881.27 1366.17 881.27C1374.91 881.27 1381.93 883.669 1387.23 888.459L1382.22 897.449C1380.33 895.649 1377.88 894.239 1374.84 893.209C1371.8 892.179 1368.78 891.67 1365.78 891.67C1362.44 891.67 1359.77 892.369 1357.75 893.729C1355.73 895.099 1354.74 897.11 1354.74 899.77C1354.74 902.08 1355.9 904.05 1358.2 905.68C1360.52 907.3 1363.3 908.699 1366.55 909.849C1369.81 911.009 1373.07 912.32 1376.37 913.77C1379.66 915.23 1382.48 917.35 1384.78 920.13C1387.09 922.91 1388.24 926.269 1388.24 930.209C1388.24 935.779 1386.06 940.359 1381.69 943.949C1377.32 947.539 1371.71 949.349 1364.87 949.349C1354.6 949.369 1346.34 946.199 1340.08 939.859Z" fill="#186FAF"/>
<path d="M1409.43 973.511V882.841H1421V888.621L1420.62 893.501H1420.87C1422.92 889.641 1425.88 886.651 1429.73 884.511C1433.59 882.371 1437.91 881.301 1442.71 881.301C1451.45 881.301 1458.37 884.431 1463.52 890.671C1468.65 896.911 1471.22 905.141 1471.22 915.331C1471.22 925.611 1468.47 933.841 1463.01 940.051C1457.53 946.261 1450.46 949.371 1441.82 949.371C1433.17 949.371 1426.45 945.691 1421.66 938.331H1421.41C1421.75 939.871 1421.92 941.761 1421.92 943.981V973.521H1409.44V973.511H1409.43ZM1421.51 915.591C1421.51 921.751 1423.16 927.131 1426.46 931.711C1429.75 936.291 1434.23 938.581 1439.88 938.581C1445.19 938.581 1449.64 936.511 1453.24 932.351C1456.83 928.201 1458.63 922.571 1458.63 915.461C1458.63 908.441 1456.94 902.811 1453.56 898.571C1450.18 894.331 1445.74 892.211 1440.27 892.211C1434.96 892.211 1430.51 894.181 1426.91 898.121C1423.3 902.061 1421.51 907.891 1421.51 915.591Z" fill="#186FAF"/>
<path d="M1493.05 947.83V857.16H1505.5V890.81L1504.99 896.2H1505.24C1507.04 892.43 1510.07 889.01 1514.36 885.92C1518.64 882.84 1523.73 881.3 1529.64 881.3C1544.45 881.3 1551.86 889.61 1551.86 906.22V947.84H1539.41V909.05C1539.41 903.82 1538.58 899.8 1536.91 896.98C1535.24 894.15 1532.01 892.74 1527.21 892.74C1520.95 892.74 1515.77 895.03 1511.67 899.61C1507.56 904.19 1505.51 909.99 1505.51 917.01V947.83H1493.04V947.83H1493.05Z" fill="#186FAF"/>
<path d="M1572.67 915.331C1572.67 905.151 1575.75 896.921 1581.92 890.671C1588.09 884.421 1595.87 881.301 1605.29 881.301C1614.11 881.301 1621 884.201 1625.97 889.981C1630.94 895.761 1633.42 903.011 1633.42 911.751C1633.42 912.861 1633.25 914.621 1632.91 917.021H1585.65C1585.99 923.791 1588.28 929.071 1592.52 932.881C1596.76 936.691 1601.92 938.591 1608 938.591C1615.1 938.591 1621.49 936.061 1627.14 931.011L1632.4 940.131C1629.32 942.961 1625.48 945.201 1620.91 946.871C1616.32 948.541 1611.77 949.371 1607.23 949.371C1597.13 949.371 1588.84 946.141 1582.38 939.671C1575.9 933.201 1572.67 925.091 1572.67 915.331ZM1586.03 908.011H1620.83C1620.66 902.621 1619.09 898.421 1616.14 895.431C1613.19 892.441 1609.48 890.931 1605.03 890.931C1600.15 890.931 1595.98 892.461 1592.51 895.491C1589.03 898.531 1586.89 902.711 1586.03 908.011Z" fill="#186FAF"/>
<path d="M1654.87 947.83V882.84H1666.94V894.53L1666.56 899.28H1666.81C1668.43 894.32 1671.09 890.21 1674.77 886.95C1678.45 883.69 1682.68 882.07 1687.48 882.07C1688.34 882.07 1689.45 882.16 1690.82 882.32V894.65C1690.14 894.48 1688.93 894.4 1687.23 894.4C1680.72 894.4 1675.78 897.03 1672.4 902.3C1669.02 907.56 1667.33 913.75 1667.33 920.86V947.83H1654.88H1654.87Z" fill="#186FAF"/>
<path d="M1703.67 915.331C1703.67 905.151 1706.75 896.921 1712.92 890.671C1719.09 884.421 1726.87 881.301 1736.29 881.301C1745.11 881.301 1752 884.201 1756.97 889.981C1761.94 895.761 1764.42 903.011 1764.42 911.751C1764.42 912.861 1764.25 914.621 1763.91 917.021H1716.65C1716.99 923.791 1719.28 929.071 1723.52 932.881C1727.76 936.691 1732.92 938.591 1739 938.591C1746.1 938.591 1752.49 936.061 1758.14 931.011L1763.4 940.131C1760.32 942.961 1756.48 945.201 1751.91 946.871C1747.32 948.541 1742.77 949.371 1738.23 949.371C1728.13 949.371 1719.84 946.141 1713.38 939.671C1706.91 933.201 1703.67 925.091 1703.67 915.331ZM1717.03 908.011H1751.83C1751.66 902.621 1750.09 898.421 1747.14 895.431C1744.19 892.441 1740.48 890.931 1736.03 890.931C1731.15 890.931 1726.98 892.461 1723.51 895.491C1720.06 898.531 1717.89 902.711 1717.03 908.011Z" fill="#186FAF"/>
<path d="M1785.23 947.83V934.34H1798.59V947.83H1785.23Z" fill="#186FAF"/>
<path d="M1823.62 947.83V882.84H1836.07V947.83H1823.62Z" fill="#186FAF"/>
<path d="M1857.41 915.199C1857.41 905.529 1860.79 897.459 1867.56 890.989C1874.33 884.529 1882.59 881.289 1892.34 881.289C1902.19 881.289 1910.5 884.499 1917.25 890.919C1924.02 897.339 1927.4 905.439 1927.4 915.189C1927.4 924.949 1924.02 933.089 1917.25 939.589C1910.48 946.099 1902.22 949.359 1892.47 949.359C1882.72 949.359 1874.43 946.099 1867.62 939.589C1860.8 933.099 1857.41 924.969 1857.41 915.199ZM1870.12 915.199C1870.12 921.969 1872.28 927.549 1876.61 931.969C1880.93 936.379 1886.21 938.589 1892.47 938.589C1898.63 938.589 1903.91 936.369 1908.26 931.919C1912.63 927.469 1914.81 921.899 1914.81 915.219C1914.81 908.539 1912.62 903.019 1908.26 898.649C1903.89 894.279 1898.63 892.099 1892.47 892.099C1886.21 892.099 1880.93 894.279 1876.61 898.649C1872.28 902.999 1870.12 908.529 1870.12 915.199Z" fill="#186FAF"/>
<path d="M151.05 767.999C97.78 767.999 59.49 751.409 35.93 718.099C12.49 684.789 0.77002 636.289 0.77002 572.579V388.999C0.77002 356.619 3.32002 328.659 8.43002 305.209C13.54 281.769 22.12 261.109 34.08 243.469C46.15 225.829 62.63 212.489 83.75 203.669C104.87 194.849 130.63 190.439 161.27 190.439C216.97 190.439 257.01 204.129 281.26 231.399C305.51 258.669 317.7 300.099 317.7 355.689V383.189H219.41V353.949C219.41 341.529 219.18 331.319 218.6 323.309C218.02 315.419 216.63 307.409 214.42 299.399C212.33 291.389 209.2 285.129 205.14 280.829C201.08 276.539 195.51 273.059 188.43 270.269C181.47 267.599 172.88 266.209 162.67 266.209C154.9 266.209 148.05 267.259 142.01 269.109C136.09 271.079 130.99 273.399 126.92 276.299C122.86 279.089 119.38 283.149 116.59 288.369C113.69 293.589 111.6 298.579 110.09 303.459C108.58 308.329 107.54 314.599 106.72 322.369C105.91 330.029 105.44 336.879 105.21 342.679C104.98 348.599 104.86 356.259 104.86 365.539V592.989C104.86 626.989 109.04 651.829 117.39 667.609C125.75 683.279 141.76 691.169 165.32 691.169C177.62 691.169 187.83 688.849 196.07 684.209C204.43 679.569 210.81 672.609 215.45 663.209C220.09 653.809 223.46 643.019 225.31 630.829C227.28 618.759 228.21 604.019 228.21 586.849V540.549H167.4V474.289H320.7V760.579H254.09L246.55 703.489C229.61 746.539 197.7 767.999 151.05 767.999Z" fill="#231F20"/>
<path d="M757.62 760.58V358.01H852.78V760.57H757.62V760.58ZM757.62 294.42V193H853.12V294.42H757.62ZM368.98 760.58L483.64 196.94H590.63L704.93 760.58H609.42L586.56 629.68H489.08L465.87 760.58H368.98ZM499.88 562.72H575.43L537.6 331.21L499.88 562.72Z" fill="#E21936"/>
<path d="M930.74 759.05L1045.39 195.41H1152.39L1266.69 759.05H1171.18L1148.32 628.15H1050.84L1027.64 759.05H930.74ZM1061.64 561.19H1137.19L1099.36 329.68L1061.64 561.19Z" fill="#231F20"/>
<path d="M842.84 966.289V960.329C847.53 960.329 851.16 959.959 853.77 959.199C856.36 958.419 858.07 957.399 858.9 956.149C859.75 954.879 860.17 953.169 860.17 950.999C860.17 950.279 860.15 949.709 860.1 949.309C859.96 947.899 859.2 944.199 857.79 938.199C855.18 927.479 849.59 903.479 841.02 866.189H848.25L864.1 939.359L879.26 866.189H886.63L867.06 952.899C866 957.639 863.8 961.059 860.5 963.159C857.22 965.269 852.34 966.299 845.9 966.299H842.84V966.289ZM812.5 947.619C806.96 947.619 802.08 944.959 797.88 939.699V946.329H790.51V834.109H797.88V872.949C801.99 867.589 807.12 864.909 813.24 864.909C816.13 864.909 818.65 865.419 820.8 866.459C822.95 867.499 824.68 868.909 826 870.739C827.34 872.539 828.4 874.849 829.23 877.689C830.04 880.529 830.59 883.579 830.87 886.789C831.17 890.029 831.31 893.769 831.31 897.989V913.349C831.31 925.089 829.93 933.729 827.13 939.269C824.33 944.849 819.46 947.619 812.5 947.619ZM811.62 941.869C816.45 941.869 819.71 939.699 821.39 935.399C823.08 931.079 823.93 923.799 823.93 913.569V897.929C823.93 887.829 823.12 880.759 821.53 876.719C819.94 872.679 816.68 870.669 811.76 870.669C807.02 870.669 802.38 873.139 797.87 878.109V934.619C801.85 939.449 806.43 941.869 811.62 941.869ZM726.81 947.619C719.95 947.619 715.1 944.989 712.25 939.719C709.41 934.469 707.98 925.689 707.98 913.429V899.149C707.98 887.229 709.32 878.539 711.95 873.089C714.58 867.639 719.43 864.909 726.46 864.909C732.1 864.959 736.95 867.429 741.01 872.349V834.109H748.38V946.329H741.01V940.229C736.95 945.149 732.22 947.619 726.81 947.619ZM727.89 941.869C732.62 941.869 736.99 939.609 741.01 935.099V877.619C736.46 872.979 731.98 870.669 727.61 870.669C722.69 870.669 719.43 872.659 717.79 876.609C716.17 880.579 715.36 887.519 715.36 897.399V914.059C715.36 924.149 716.22 931.319 717.97 935.549C719.72 939.749 723.02 941.869 727.89 941.869ZM675.84 947.619C673.18 947.619 670.83 947.319 668.79 946.769C666.78 946.209 664.88 945.219 663.15 943.829C661.42 942.419 659.98 940.569 658.87 938.259C657.76 935.969 656.91 933.009 656.31 929.409C655.71 925.779 655.38 921.559 655.38 916.679V895.279C655.38 890.359 655.7 886.109 656.33 882.479C656.98 878.879 657.83 875.959 658.94 873.719C660.05 871.479 661.5 869.699 663.28 868.359C665.06 867.039 666.93 866.119 668.92 865.629C670.91 865.119 673.26 864.889 675.97 864.889C683.32 864.889 688.45 867.289 691.33 872.099C694.22 876.909 695.67 885.129 695.67 896.749L695.53 904.419H662.77V917.199C662.77 926.629 663.74 933.139 665.7 936.699C667.66 940.259 671.01 942.039 675.75 942.039C677.11 942.039 678.29 941.969 679.31 941.789C680.33 941.609 681.44 941.189 682.66 940.539C683.88 939.869 684.88 938.969 685.64 937.809C686.4 936.679 687.05 935.009 687.56 932.869C688.09 930.739 688.34 928.179 688.34 925.199V919.239H695.6V924.529C695.6 931.919 694.08 937.629 691.05 941.599C688.04 945.609 682.98 947.619 675.84 947.619ZM662.79 900.029H688.37V893.819C688.37 890.609 688.3 887.949 688.16 885.829C688.04 883.699 687.72 881.579 687.21 879.449C686.73 877.349 686.03 875.689 685.15 874.479C684.27 873.279 683.07 872.309 681.52 871.569C679.99 870.829 678.15 870.459 675.97 870.459C672.76 870.459 670.26 871.079 668.46 872.309C666.66 873.559 665.25 875.909 664.26 879.359C663.27 882.799 662.78 887.679 662.78 893.939V900.029H662.79V900.029ZM618.73 946.329V866.179H626.03V877.009C628.29 873.269 631.18 870.379 634.69 868.369C638.2 866.379 641.64 865.369 644.97 865.369C645.02 865.369 645.25 865.389 645.62 865.419C646.01 865.439 646.24 865.439 646.34 865.439V873.089C645.53 872.809 644.54 872.669 643.36 872.669C635.87 872.669 630.1 876.139 626.03 883.039V946.319H618.73V946.329V946.329ZM584 947.619C581.34 947.619 578.98 947.319 576.95 946.769C574.94 946.209 573.05 945.219 571.31 943.829C569.58 942.419 568.15 940.569 567.04 938.259C565.93 935.969 565.08 933.009 564.48 929.409C563.88 925.779 563.55 921.559 563.55 916.679V895.279C563.55 890.359 563.87 886.109 564.5 882.479C565.15 878.879 566 875.959 567.11 873.719C568.22 871.479 569.67 869.699 571.45 868.359C573.23 867.039 575.1 866.119 577.09 865.629C579.08 865.119 581.43 864.889 584.14 864.889C591.49 864.889 596.62 867.289 599.5 872.099C602.39 876.909 603.84 885.129 603.84 896.749L603.7 904.419H570.94V917.199C570.94 926.629 571.91 933.139 573.87 936.699C575.83 940.259 579.18 942.039 583.92 942.039C585.28 942.039 586.46 941.969 587.48 941.789C588.5 941.609 589.61 941.189 590.83 940.539C592.05 939.869 593.05 938.969 593.81 937.809C594.57 936.679 595.22 935.009 595.73 932.869C596.26 930.739 596.51 928.179 596.51 925.199V919.239H603.77V924.529C603.77 931.919 602.25 937.629 599.22 941.599C596.2 945.609 591.14 947.619 584 947.619ZM570.95 900.029H596.53V893.819C596.53 890.609 596.46 887.949 596.32 885.829C596.2 883.699 595.88 881.579 595.37 879.449C594.88 877.349 594.19 875.689 593.31 874.479C592.43 873.279 591.23 872.309 589.68 871.569C588.15 870.829 586.31 870.459 584.14 870.459C580.93 870.459 578.43 871.079 576.63 872.309C574.83 873.559 573.42 875.909 572.42 879.359C571.43 882.799 570.94 887.679 570.94 893.939V900.029H570.95V900.029ZM496.5 946.329L483.22 866.179H489.74L500.9 937.939L514.58 866.179H521.74L535.76 937.589L546.18 866.179H552.67L539.87 946.329H532.22L518.29 875.999L504.82 946.329H496.5ZM447.18 941.359C448.61 941.819 450.25 942.049 452.15 942.049C454.04 942.049 455.71 941.819 457.14 941.359C458.55 940.879 459.73 940.109 460.65 939.049C461.58 937.989 462.34 936.829 462.91 935.559C463.51 934.289 463.95 932.649 464.23 930.589C464.53 928.529 464.71 926.549 464.81 924.609C464.9 922.669 464.95 920.239 464.95 917.349V895.149C464.95 891.679 464.88 888.819 464.74 886.599C464.62 884.359 464.3 882.119 463.79 879.899C463.31 877.659 462.61 875.899 461.71 874.629C460.79 873.379 459.56 872.369 457.97 871.599C456.4 870.819 454.46 870.449 452.15 870.449C449.86 870.449 447.92 870.819 446.33 871.599C444.76 872.359 443.51 873.379 442.61 874.629C441.71 875.899 441.02 877.659 440.53 879.899C440.02 882.119 439.7 884.359 439.58 886.599C439.44 888.819 439.37 891.679 439.37 895.149V917.349C439.37 920.239 439.41 922.659 439.51 924.609C439.6 926.549 439.79 928.539 440.06 930.589C440.36 932.649 440.8 934.289 441.4 935.559C441.98 936.829 442.74 937.989 443.67 939.049C444.59 940.119 445.77 940.879 447.18 941.359ZM468 940.299C465.11 945.179 459.82 947.619 452.15 947.619C444.48 947.619 439.21 945.169 436.32 940.299C433.43 935.419 431.98 927.689 431.98 917.079V895.429C431.98 884.869 433.44 877.129 436.35 872.229C439.26 867.359 444.53 864.909 452.15 864.909C456.08 864.909 459.36 865.529 462.02 866.809C464.65 868.059 466.73 870.039 468.23 872.719C469.76 875.399 470.82 878.539 471.42 882.169C472.02 885.769 472.32 890.189 472.32 895.429V917.079C472.32 927.689 470.88 935.429 468 940.299ZM368.69 946.329V834.109H395.03C399.95 834.109 404.13 834.799 407.62 836.229C411.09 837.639 413.79 839.699 415.71 842.379C417.63 845.079 419.01 848.109 419.87 851.459C420.72 854.829 421.16 858.689 421.16 863.059C421.16 866.179 420.91 869.109 420.42 871.859C419.91 874.609 419.03 877.289 417.76 879.899C416.51 882.489 414.92 884.709 413 886.599C411.08 888.469 408.61 889.949 405.58 891.059C402.55 892.169 399.11 892.719 395.23 892.719H376.26V946.319H368.69V946.329V946.329ZM376.27 886.839H393.53C400.44 886.839 405.5 885.019 408.66 881.389C411.85 877.759 413.44 871.659 413.44 863.069C413.44 854.199 411.96 848.119 409.03 844.839C406.09 841.559 400.99 839.939 393.67 839.939H376.27V886.839Z" fill="#231F20"/>
<path d="M823.29 126.46C817.7 126.41 813.11 124.2 809.52 119.87C805.93 115.54 804.14 110.64 804.14 105.2C804.14 100.02 805.01 95.53 806.7 91.66C808.39 87.81 811.19 84.51 815.08 81.74C818.95 79 822.18 77 824.72 75.74C827.28 74.48 831.21 72.84 836.51 70.79C838.02 70.17 839.15 69.74 839.89 69.43V62C839.89 58 839.43 55.05 838.51 53.21C837.59 51.36 835.69 50.44 832.84 50.44C828.17 50.44 825.79 53.7 825.69 60.21L825.38 65.75L805.25 65.01C805.25 64.7 805.28 64.16 805.3 63.37C805.33 62.55 805.33 62.04 805.33 61.78C806 52.47 808.77 45.63 813.64 41.27C818.51 36.91 825.49 34.76 834.56 34.76C843.33 34.76 849.82 37.12 854.05 41.89C858.28 46.63 860.41 53.38 860.41 62.09V102.73C860.41 109.52 860.95 116.99 862.05 125.04H843.05C841.9 119.22 841.18 114.89 840.87 111.96C839.61 116.06 837.54 119.52 834.59 122.29C831.67 125.05 827.91 126.46 823.29 126.46ZM831.34 110.15C832.93 110.15 834.52 109.53 836.11 108.36C837.67 107.16 838.96 105.92 839.9 104.67V80.18C829.49 85.95 824.29 92.46 824.29 99.79C824.29 102.99 824.88 105.51 826.11 107.38C827.34 109.23 829.08 110.15 831.34 110.15ZM753.14 125.03V36.09H774.19V49.76C777.14 44.5 780.11 40.73 783.16 38.43C786.18 36.12 789.42 34.97 792.88 34.97C793.93 34.97 794.98 35.1 796.03 35.35V56.14C793.67 55.24 791.26 54.81 788.75 54.81C785.75 54.91 783.11 55.66 780.83 57.07C778.55 58.45 776.32 60.79 774.19 64.04V125.04L753.14 125.03ZM700.27 126.46C692.99 126.46 687.55 123.87 683.96 118.72C680.35 113.57 678.55 105.36 678.55 94.16V68.32C678.55 63.58 678.91 59.27 679.63 55.4C680.37 51.55 681.53 48.02 683.09 44.81C684.68 41.61 686.88 39.12 689.73 37.37C692.6 35.63 696.01 34.75 699.96 34.75C705.58 34.75 710.83 37.01 715.73 41.57V0.5H736.75V125.03H715.74V118.95C710.99 123.9 705.81 126.41 700.27 126.46ZM707.63 111.44C710.17 111.44 712.89 110.62 715.73 109.03V52.24C712.88 50.45 710.14 49.55 707.55 49.55C704.73 49.55 702.73 50.81 701.5 53.37C700.27 55.93 699.65 59.19 699.65 63.14V95.73C699.65 98.94 699.83 101.6 700.19 103.7C700.52 105.8 701.32 107.62 702.55 109.14C703.79 110.67 705.48 111.44 707.63 111.44ZM607.18 125.03V36.09H628.23V44.81C635.38 38.09 642.61 34.76 649.92 34.76C655 34.76 658.69 36.61 661.02 40.3C663.33 44.02 664.51 48.58 664.51 53.99V125.04H643.49V58.63C643.49 55.84 643.08 53.76 642.28 52.4C641.46 51.04 639.92 50.4 637.61 50.45C634.99 50.5 631.87 51.86 628.23 54.5V125.03H607.18V125.03ZM569.64 125.03V36.09H590.66V125.03H569.64ZM569.64 22.03V4.31H590.74V22.03H569.64ZM495.73 125.03V0.5H516.7V44.73C523.7 38.06 531.08 34.76 538.85 34.76C540.95 34.76 542.85 35.12 544.52 35.84C546.19 36.56 547.57 37.53 548.65 38.76C549.73 39.99 550.62 41.45 551.37 43.12C552.09 44.81 552.6 46.53 552.91 48.3C553.19 50.09 553.35 51.97 553.35 53.99V125.04H532.4V58.63C532.4 55.84 531.99 53.76 531.14 52.4C530.32 51.04 528.76 50.4 526.45 50.45C523.71 50.5 520.45 51.94 516.71 54.81V125.04L495.73 125.03ZM442.83 126.46C437.24 126.41 432.65 124.2 429.06 119.87C425.47 115.54 423.68 110.64 423.68 105.2C423.68 100.02 424.55 95.53 426.24 91.66C427.93 87.81 430.73 84.51 434.62 81.74C438.49 79 441.72 77 444.26 75.74C446.82 74.48 450.75 72.84 456.05 70.79C457.56 70.17 458.69 69.74 459.43 69.43V62C459.43 58 458.97 55.05 458.05 53.21C457.13 51.36 455.23 50.44 452.38 50.44C447.71 50.44 445.33 53.7 445.23 60.21L444.92 65.75L424.79 65.01C424.79 64.7 424.82 64.16 424.84 63.37C424.87 62.55 424.87 62.04 424.87 61.78C425.54 52.47 428.31 45.63 433.18 41.27C438.05 36.91 445.03 34.76 454.1 34.76C462.87 34.76 469.36 37.12 473.59 41.89C477.82 46.63 479.95 53.38 479.95 62.09V102.73C479.95 109.52 480.49 116.99 481.59 125.04H462.59C461.44 119.22 460.72 114.89 460.41 111.96C459.15 116.06 457.08 119.52 454.13 122.29C451.22 125.05 447.45 126.46 442.83 126.46ZM450.88 110.15C452.47 110.15 454.06 109.53 455.65 108.36C457.21 107.16 458.5 105.92 459.44 104.67V80.18C449.03 85.95 443.83 92.46 443.83 99.79C443.83 102.99 444.42 105.51 445.65 107.38C446.88 109.23 448.63 110.15 450.88 110.15ZM321.84 125.03L323.87 0.5H347.15L365.17 88.01L383.73 0.5H406.47L408.57 125.03H391.44L389.95 39.24L372 125.03H358.69L340.51 38.96L339.15 125.03H321.84ZM209.98 125.03V0.5H230.95V44.73C237.95 38.06 245.33 34.76 253.1 34.76C255.2 34.76 257.1 35.12 258.77 35.84C260.44 36.56 261.82 37.53 262.9 38.76C263.98 39.99 264.87 41.45 265.62 43.12C266.34 44.81 266.85 46.53 267.16 48.3C267.44 50.09 267.6 51.97 267.6 53.99V125.04H246.64V58.63C246.64 55.84 246.23 53.76 245.38 52.4C244.56 51.04 243 50.4 240.69 50.45C237.95 50.5 234.69 51.94 230.95 54.81V125.04L209.98 125.03ZM168.75 126.46C158.67 126.46 151.44 123.61 147.03 117.97C142.62 112.3 140.41 104.12 140.41 93.41V67.64C140.41 56.92 142.62 48.74 147.03 43.15C151.44 37.53 158.67 34.74 168.75 34.74C178.21 34.74 185.08 36.95 189.36 41.41C193.64 45.87 195.77 52.79 195.77 62.15V69.35H176.18V61.76C176.18 57.25 175.64 54.12 174.56 52.35C173.48 50.56 171.61 49.68 168.94 49.68C165.99 49.68 163.99 50.73 162.97 52.83C161.94 54.93 161.43 58.83 161.43 64.55V96.98C161.43 102.65 161.99 106.47 163.12 108.44C164.25 110.41 166.2 111.41 168.94 111.41C171.76 111.41 173.66 110.44 174.66 108.51C175.66 106.59 176.17 103.66 176.17 99.77V90.23H195.76V98.64C195.76 107.84 193.58 114.79 189.2 119.43C184.83 124.13 178.01 126.46 168.75 126.46ZM100.29 126.46C90.1401 126.46 82.8302 123.64 78.3702 118.05C73.9102 112.43 71.6802 104.15 71.6802 93.18V68C71.6802 57.05 73.9401 48.74 78.4501 43.16C82.9401 37.54 90.2202 34.75 100.22 34.75C105.53 34.75 110.01 35.52 113.63 37.06C117.27 38.62 120.09 40.98 122.12 44.14C124.15 47.29 125.61 50.93 126.45 55.06C127.3 59.19 127.73 64.16 127.73 69.98V81.62H92.5502V94.98C92.5502 96.83 92.5802 98.29 92.6002 99.31C92.6302 100.34 92.7002 101.57 92.8602 103.03C93.0102 104.47 93.2402 105.59 93.5802 106.39C93.9102 107.21 94.3502 108.01 94.8902 108.85C95.4502 109.67 96.1702 110.26 97.0702 110.59C97.9702 110.95 99.0202 111.13 100.22 111.13C103.04 111.13 104.99 110.13 106.09 108.16C107.19 106.19 107.73 103.31 107.73 99.57V94.47H127.65V97.98C127.65 107.21 125.34 114.26 120.78 119.13C116.19 124 109.37 126.46 100.29 126.46ZM92.5502 71.08H107.73V62.59C107.73 58.1 107.17 54.87 106.04 52.9C104.91 50.95 102.94 49.98 100.07 49.98C97.1702 49.98 95.2001 51.08 94.1501 53.29C93.1001 55.5 92.5602 59.49 92.5602 65.32L92.5502 71.08ZM21.8102 125.03V17.24H0.910156V0.5H64.7002V17.24H44.5002V125.03H21.8102Z" fill="#231F20"/>
</svg>
