<svg width="0" height="0" style="position:absolute"><symbol viewBox="0 0 28 28" id="icon-applications">
    <g fill-opacity="0" stroke-width="2" stroke="currentColor">
        <circle cx="14" cy="4" r="3"/>
        <circle cx="4" cy="14" r="3"/>
        <circle cx="14" cy="24" r="3"/>
        <circle cx="24" cy="14" r="3"/>
    </g>
    <g fill="currentColor">
        <path d="M3 3 H10 L8 5 H5 V8 L3 10"/>
        <path d="M18 3 H25 V10 L23 8 V5 H20"/>
        <path d="M25 18 V25 H18 L20 23 H23 V20"/>
        <path d="M10 25 H3 V18 L5 20 V23 H8"/>
    </g>         
</symbol><symbol viewBox="0 0 12 12" id="icon-arrow">
    <path fill="currentColor" d="M0 7 l6 -7 6 7 h-4 v5 h-4 v-5 z"/>
</symbol><symbol viewBox="0 0 20.57 38" id="icon-arrow-left">
    <path fill="currentColor" d="M18.54 2L2 18.86 18.57 36"/>
</symbol><symbol viewBox="0 0 451.846 451.847" id="icon-arrow-right">
    <path fill="currentColor" d="M345.441 248.292L151.154 442.573c-12.359 12.365-32.397 12.365-44.75 0-12.354-12.354-12.354-32.391 0-44.744L278.318 225.92 106.409 54.017c-12.354-12.359-12.354-32.394 0-44.748 12.354-12.359 32.391-12.359 44.75 0l194.287 194.284c6.177 6.18 9.262 14.271 9.262 22.366 0 8.099-3.091 16.196-9.267 22.373z"/>
</symbol><symbol viewBox="0 0 9.25 14" id="icon-edit">
    <path fill="currentColor" d="M8.239,3.237 L5.641,1.737 L6.641,0.005 L9.239,1.505 L8.239,3.237 ZM3.239,11.897 L0.641,10.397 L5.141,2.603 L7.739,4.103 L3.239,11.897 ZM1.373,13.129 L0.873,13.995 L0.007,13.495 L0.507,12.629 L0.641,10.397 L3.239,11.897 L1.373,13.129 Z"/>
</symbol><symbol viewBox="0 0 512 512" id="icon-folder">
    <path fill="currentColor" d="M261.722 93l-56-50H0v426h512V93H261.722zM482 439H30V173h452v266zm0-296H30V73h164.278l56 50H482v20z"/>
    <path fill="currentColor" d="M256 191c-63.411 0-115 51.589-115 115s51.589 115 115 115 115-51.589 115-115-51.589-115-115-115zm0 200c-46.869 0-85-38.131-85-85s38.131-85 85-85 85 38.131 85 85-38.131 85-85 85z"/>
    <path fill="currentColor" d="M220.401 285.52l-33.92 20.64v7.04l33.92 20v-16.96l-11.84-6.96 11.84-7.6zM268.32 273.2L227.121 330h16.719l41.281-56.8zM291.599 285.52v16.16l11.84 7.6-11.84 6.96v16.96l33.92-20v-7.04z"/>
</symbol><symbol viewBox="0 0 40 40" id="icon-models">
    <circle cx="10" cy="10" r="6" stroke="currentColor" stroke-width="4" fill-opacity="0"/>
    <circle cx="30" cy="10" r="6" stroke="currentColor" stroke-width="4" fill-opacity="0"/>
    <circle cx="10" cy="30" r="6" stroke="currentColor" stroke-width="4" fill-opacity="0"/>
    <circle cx="30" cy="30" r="6" stroke="currentColor" stroke-width="4" fill-opacity="0"/>
</symbol><symbol viewBox="0 0 199 184" id="icon-pipline">
    <path fill="currentColor" d="m0,25l0,25l50,0l0,-16l63.4,0c34.9,0 64.2,0.3 65.1,0.6c3.7,1.5 4.5,5.6 4.5,24.4l0,18.2l-2.9,2.9c-2.5,2.4 -3.7,2.9 -8,2.9l-5.1,0l0,-17l-25,12.5l-25,12.5l0,-25l-51,0l0,17l-22.6,0c-14.5,0 -24.1,0.4 -26.6,1.2c-5.1,1.5 -12.6,8.2 -14.9,13.3c-1.6,3.5 -1.9,6.8 -1.9,27.5s0.3,24 1.9,27.5c2.3,5.1 9.8,11.8 14.9,13.3c2.7,0.8 16,1.2 43.1,1.2l39.1,0l0,8.5c0,4.7 0.2,8.5 0.5,8.5s11.3,-5.4 24.5,-12s24.2,-12 24.5,-12c0.3,0 0.5,5.4 0.5,12l0,12l51,0l0,-51l-51,0l0,24l-24,-12c-13.2,-6.6 -24.4,-12 -25,-12c-0.6,0 -1,3.3 -1,8l0,8l-77.9,0l-2,-2.6c-2,-2.5 -2.1,-4 -2.1,-21.5c0,-18.4 0,-18.8 2.4,-21.6l2.4,-2.8l22.1,-0.3l22.1,-0.3l0,17.1l51,0l0,-12c0,-6.6 0.2,-12 0.5,-12s11.3,5.4 24.5,12s24.2,12 24.5,12c0.3,0 0.5,-3.8 0.5,-8.4l0,-8.4l8.3,-0.3c7.2,-0.4 9,-0.8 13.3,-3.4c3,-1.9 6,-4.9 7.9,-7.9l3,-4.9l0.3,-24.3c0.3,-23.1 0.2,-24.4 -1.9,-28.8c-1.2,-2.6 -4,-6.2 -6.2,-8.1c-7.6,-6.5 -7.1,-6.5 -77.9,-6.5l-63.8,0l0,-16l-50,0l0,25zm33,0l0,8l-16,0l0,-16l16,0l0,8zm66,66.5l0,7.5l-15,0l0,-15l15,0l0,7.5zm84,66.5l0,8l-16,0l0,-16l16,0l0,8z"/>
</symbol><symbol viewBox="0 0 12 12" id="icon-plus">
    <path fill="currentColor" d="M12.000,7.000 L7.000,7.000 L7.000,12.000 L5.000,12.000 L5.000,7.000 L-0.000,7.000 L-0.000,5.000 L5.000,5.000 L5.000,-0.000 L7.000,-0.000 L7.000,5.000 L12.000,5.000 L12.000,7.000 Z"/>
</symbol><symbol viewBox="0 0 14 15" id="icon-remove">
    <path fill="currentColor" d="M13.000,4.000 L11.000,4.000 L3.000,4.000 L1.000,4.000 C0.448,4.000 -0.000,3.552 -0.000,3.000 C-0.000,2.448 0.448,2.000 1.000,2.000 L3.000,2.000 L3.000,-0.000 L11.000,-0.000 L11.000,2.000 L13.000,2.000 C13.552,2.000 14.000,2.448 14.000,3.000 C14.000,3.552 13.552,4.000 13.000,4.000 ZM11.000,15.000 L3.000,15.000 L1.000,5.000 L13.000,5.000 L11.000,15.000 ZM6.000,8.000 C6.000,7.448 5.552,7.000 5.000,7.000 C4.448,7.000 4.000,7.448 4.000,8.000 L4.000,12.000 C4.000,12.552 4.448,13.000 5.000,13.000 C5.552,13.000 6.000,12.552 6.000,12.000 L6.000,8.000 ZM10.000,8.000 C10.000,7.448 9.552,7.000 9.000,7.000 C8.448,7.000 8.000,7.448 8.000,8.000 L8.000,12.000 C8.000,12.552 8.448,13.000 9.000,13.000 C9.552,13.000 10.000,12.552 10.000,12.000 L10.000,8.000 Z"/>
</symbol><symbol viewBox="0 0 24 24" id="icon-search">
    <path fill="currentColor" d="M15.5 14h-.79l-.28-.27C15.41 12.59 16 11.11 16 9.5 16 5.91 13.09 3 9.5 3S3 5.91 3 9.5 5.91 16 9.5 16c1.61 0 3.09-.59 4.23-1.57l.27.28v.79l5 4.99L20.49 19l-4.99-5zm-6 0C7.01 14 5 11.99 5 9.5S7.01 5 9.5 5 14 7.01 14 9.5 11.99 14 9.5 14z"/>
    <path d="M0 0h24v24H0z" fill="none"/>
</symbol><symbol viewBox="0 0 10 11" id="icon-start">
    <path fill="currentColor" d="M1338.68 590.87l-9.26 5.77V586.1z" transform="translate(-1329 -586)"/>
</symbol><symbol viewBox="0 0 24 24" id="icon-warning">
    <path fill="currentColor" d="M4.47 21h15.06c1.54 0 2.5-1.67 1.73-3L13.73 4.99c-.77-1.33-2.69-1.33-3.46 0L2.74 18c-.77 1.33.19 3 1.73 3zM12 14c-.55 0-1-.45-1-1v-2c0-.55.45-1 1-1s1 .45 1 1v2c0 .55-.45 1-1 1zm1 4h-2v-2h2v2z"/>
</symbol></svg>