<svg width="0" height="0" style="position:absolute"><symbol viewBox="0 0 24 24" id="block" xmlns="http://www.w3.org/2000/svg"><path d="M0 0h24v24H0z" fill="none"/><path fill="currentColor" d="M12 2C6.48 2 2 6.48 2 12s4.48 10 10 10 10-4.48 10-10S17.52 2 12 2zM4 12c0-4.42 3.58-8 8-8 1.85 0 3.55.63 4.9 1.69L5.69 16.9C4.63 15.55 4 13.85 4 12zm8 8c-1.85 0-3.55-.63-4.9-1.69L18.31 7.1C19.37 8.45 20 10.15 20 12c0 4.42-3.58 8-8 8z"/></symbol><symbol viewBox="0 0 24 24" id="bookmark" xmlns="http://www.w3.org/2000/svg"><path fill="currentColor" d="M6 0v24l6-5.269 6 5.269v-24h-12zm8.473 13.8l-2.473-1.321-2.472 1.321.494-2.759-2.022-1.943 2.777-.383 1.223-2.523 1.223 2.522 2.777.384-2.021 1.943.494 2.759z"/></symbol><symbol viewBox="0 0 24 24" id="check" xmlns="http://www.w3.org/2000/svg"><path d="M0 0h24v24H0z" fill="none"/><path fill="currentColor" d="M12 2C6.48 2 2 6.48 2 12s4.48 10 10 10 10-4.48 10-10S17.52 2 12 2zm-2 15l-5-5 1.41-1.41L10 14.17l7.59-7.59L19 8l-9 9z"/></symbol><symbol viewBox="0 0 24 24" id="circle-check" xmlns="http://www.w3.org/2000/svg"><path fill="currentColor" d="M12 0c-6.627 0-12 5.373-12 12s5.373 12 12 12 12-5.373 12-12-5.373-12-12-12zm-1.25 17.292l-4.5-4.364 1.857-1.858 2.643 2.506 5.643-5.784 1.857 1.857-7.5 7.643z"/></symbol><symbol viewBox="0 0 24 24" id="circle-x" xmlns="http://www.w3.org/2000/svg"><path fill="currentColor" d="M12 0c-6.627 0-12 5.373-12 12s5.373 12 12 12 12-5.373 12-12-5.373-12-12-12zm4.151 17.943l-4.143-4.102-4.117 4.159-1.833-1.833 4.104-4.157-4.162-4.119 1.833-1.833 4.155 4.102 4.106-4.16 1.849 1.849-4.1 4.141 4.157 4.104-1.849 1.849z"/></symbol><symbol viewBox="0 0 24 24" id="clock" xmlns="http://www.w3.org/2000/svg"><path fill="currentColor" d="M11.99 2C6.47 2 2 6.48 2 12s4.47 10 9.99 10C17.52 22 22 17.52 22 12S17.52 2 11.99 2zM12 20c-4.42 0-8-3.58-8-8s3.58-8 8-8 8 3.58 8 8-3.58 8-8 8z"/><path d="M0 0h24v24H0z" fill="none"/><path fill="currentColor" d="M12.5 7H11v6l5.25 3.15.75-1.23-4.5-2.67z"/></symbol><symbol viewBox="0 0 1080 1080" fill="none" id="data_projection" xmlns="http://www.w3.org/2000/svg">
<line x1="463.342" y1="412.708" x2="641.088" y2="411.82" stroke="#243B53" stroke-width="5"/>
<line x1="464.556" y1="413.015" x2="657.144" y2="518.562" stroke="#243B53" stroke-width="5"/>
<line x1="283.287" y1="572.803" x2="461.689" y2="413.344" stroke="#243B53" stroke-width="5"/>
<line x1="461.173" y1="414.207" x2="483.857" y2="337.901" stroke="#243B53" stroke-width="5"/>
<line x1="460.948" y1="415.882" x2="418.593" y2="264.674" stroke="#243B53" stroke-width="5"/>
<circle cx="421.185" cy="263.561" r="36.7415" transform="rotate(-73.4439 421.185 263.561)" fill="#243B53"/>
<circle cx="287.618" cy="568.484" r="40.2415" transform="rotate(-73.4439 287.618 568.484)" fill="#243B53" stroke="white" stroke-width="7"/>
<path d="M699.291 529.437C705.624 508.133 693.489 485.73 672.185 479.397C650.882 473.063 628.478 485.199 622.145 506.503C615.812 527.806 627.948 550.21 649.251 556.543C670.555 562.876 692.958 550.74 699.291 529.437Z" fill="#243B53" stroke="white" stroke-width="7"/>
<circle cx="460.383" cy="408.494" r="40.7415" transform="rotate(-73.4439 460.383 408.494)" fill="#243B53" stroke="white" stroke-width="8"/>
<path d="M687.291 416.437C693.624 395.133 681.489 372.73 660.185 366.397C638.882 360.063 616.478 372.199 610.145 393.503C603.812 414.806 615.948 437.21 637.251 443.543C658.555 449.876 680.958 437.74 687.291 416.437Z" fill="#243B53" stroke="white" stroke-width="7"/>
<circle cx="492.3" cy="309.901" r="40.2415" transform="rotate(-73.4439 492.3 309.901)" fill="#243B53" stroke="white" stroke-width="7"/>
<circle cx="421.185" cy="263.561" r="40.2415" transform="rotate(-73.4439 421.185 263.561)" fill="#243B53" stroke="white" stroke-width="7"/>
<mask id="agpath-13-outside-1" maskUnits="userSpaceOnUse" x="64" y="53.8031" width="770" height="770" fill="black">
<rect fill="white" x="64" y="53.8031" width="770" height="770"/>
<path d="M803.549 438.578C803.549 634.514 644.711 793.352 448.775 793.352C252.838 793.352 94 634.514 94 438.578C94 242.641 252.838 83.8031 448.775 83.8031C644.711 83.8031 803.549 242.641 803.549 438.578ZM129.477 438.578C129.477 614.921 272.432 757.875 448.775 757.875C625.117 757.875 768.072 614.921 768.072 438.578C768.072 262.235 625.117 119.281 448.775 119.281C272.432 119.281 129.477 262.235 129.477 438.578Z"/>
</mask>
<path d="M803.549 438.578C803.549 634.514 644.711 793.352 448.775 793.352C252.838 793.352 94 634.514 94 438.578C94 242.641 252.838 83.8031 448.775 83.8031C644.711 83.8031 803.549 242.641 803.549 438.578ZM129.477 438.578C129.477 614.921 272.432 757.875 448.775 757.875C625.117 757.875 768.072 614.921 768.072 438.578C768.072 262.235 625.117 119.281 448.775 119.281C272.432 119.281 129.477 262.235 129.477 438.578Z" stroke="#243B53" stroke-width="60" mask="url(#agpath-13-outside-1)"/>
<line x1="698.505" y1="725.162" x2="1005.95" y2="1014.87" stroke="#243B53" stroke-width="50" stroke-linecap="round" stroke-linejoin="round"/>
</symbol><symbol viewBox="0 0 1080 1080" fill="none" id="drift_report" xmlns="http://www.w3.org/2000/svg">
<path d="M827.5 118.48H731.667V80.16C731.667 75.0785 729.647 70.205 726.053 66.6118C722.458 63.0186 717.583 61 712.5 61H367.5C362.417 61 357.542 63.0186 353.947 66.6118C350.353 70.205 348.333 75.0785 348.333 80.16V118.48H252.5C237.25 118.48 222.625 124.536 211.841 135.316C201.058 146.095 195 160.715 195 175.96V961.52C195 976.765 201.058 991.385 211.841 1002.16C222.625 1012.94 237.25 1019 252.5 1019H827.5C842.75 1019 857.375 1012.94 868.159 1002.16C878.942 991.385 885 976.765 885 961.52V175.96C885 160.715 878.942 146.095 868.159 135.316C857.375 124.536 842.75 118.48 827.5 118.48V118.48ZM386.667 99.32H693.333V175.96H386.667V99.32ZM348.333 156.8V195.12C348.333 200.202 350.353 205.075 353.947 208.668C357.542 212.261 362.417 214.28 367.5 214.28H712.5C717.583 214.28 722.458 212.261 726.053 208.668C729.647 205.075 731.667 200.202 731.667 195.12V156.8H750.833C755.917 156.8 760.792 158.819 764.386 162.412C767.981 166.005 770 170.878 770 175.96V884.88C770 889.962 767.981 894.835 764.386 898.428C760.792 902.021 755.917 904.04 750.833 904.04H329.167C324.083 904.04 319.208 902.021 315.614 898.428C312.019 894.835 310 889.962 310 884.88V175.96C310 170.878 312.019 166.005 315.614 162.412C319.208 158.819 324.083 156.8 329.167 156.8H348.333ZM846.667 961.52C846.667 966.602 844.647 971.475 841.053 975.068C837.458 978.661 832.583 980.68 827.5 980.68H252.5C247.417 980.68 242.542 978.661 238.947 975.068C235.353 971.475 233.333 966.602 233.333 961.52V175.96C233.333 170.878 235.353 166.005 238.947 162.412C242.542 158.819 247.417 156.8 252.5 156.8H275.193C272.923 162.936 271.73 169.418 271.667 175.96V884.88C271.667 900.125 277.725 914.745 288.508 925.524C299.291 936.304 313.917 942.36 329.167 942.36H750.833C766.083 942.36 780.709 936.304 791.492 925.524C802.275 914.745 808.333 900.125 808.333 884.88V175.96C808.27 169.418 807.077 162.936 804.807 156.8H827.5C832.583 156.8 837.458 158.819 841.053 162.412C844.647 166.005 846.667 170.878 846.667 175.96V961.52Z" fill="#013D6E"/>
<path d="M387.1 751H539.9C544.966 751 549.824 748.946 553.406 745.289C556.988 741.632 559 736.672 559 731.5C559 726.328 556.988 721.368 553.406 717.711C549.824 714.054 544.966 712 539.9 712H387.1C382.034 712 377.176 714.054 373.594 717.711C370.012 721.368 368 726.328 368 731.5C368 736.672 370.012 741.632 373.594 745.289C377.176 748.946 382.034 751 387.1 751Z" fill="#013D6E"/>
<path d="M387.167 846H693.833C698.917 846 703.792 843.998 707.386 840.435C710.981 836.872 713 832.039 713 827C713 821.961 710.981 817.128 707.386 813.565C703.792 810.002 698.917 808 693.833 808H387.167C382.083 808 377.208 810.002 373.614 813.565C370.019 817.128 368 821.961 368 827C368 832.039 370.019 836.872 373.614 840.435C377.208 843.998 382.083 846 387.167 846Z" fill="#013D6E"/>
<line x1="378" y1="351" x2="378" y2="618" stroke="#013D6E" stroke-width="20"/>
<line x1="713" y1="628" x2="368" y2="628" stroke="#013D6E" stroke-width="20"/>
<rect x="403.5" y="467.5" width="55" height="158" stroke="#013D6E" stroke-width="15"/>
<rect x="484.5" y="363.5" width="55" height="262" stroke="#013D6E" stroke-width="15"/>
<rect x="565.5" y="484.5" width="55" height="141" stroke="#013D6E" stroke-width="15"/>
<rect x="646.5" y="530.5" width="55" height="95" stroke="#013D6E" stroke-width="15"/>
</symbol><symbol viewBox="0 0 24 24" id="error" xmlns="http://www.w3.org/2000/svg"><path d="M0 0h24v24H0z" fill="none"/><path fill="currentColor" d="M12 2C6.48 2 2 6.48 2 12s4.48 10 10 10 10-4.48 10-10S17.52 2 12 2zm1 15h-2v-2h2v2zm0-4h-2V7h2v6z"/></symbol><symbol viewBox="0 0 24 24" id="favorite" xmlns="http://www.w3.org/2000/svg">
  <path fill="currentColor" d="M22 9.24l-7.19-.62L12 2 9.19 8.63 2 9.24l5.46 4.73L5.82 21 12 17.27 18.18 21l-1.63-7.03L22 9.24zM12 15.4l-3.76 2.27 1-4.28-3.32-2.88 4.38-.38L12 6.1l1.71 4.04 4.38.38-3.32 2.88 1 4.28L12 15.4z"/>
  <path d="M0 0h24v24H0z"/>
</symbol><symbol viewBox="0 0 24 24" id="help" xmlns="http://www.w3.org/2000/svg">
  <path d="M0 0h24v24H0z" fill="none"/>
  <path fill="currentColor" d="M11 18h2v-2h-2v2zm1-16C6.48 2 2 6.48 2 12s4.48 10 10 10 10-4.48 10-10S17.52 2 12 2zm0 18c-4.41 0-8-3.59-8-8s3.59-8 8-8 8 3.59 8 8-3.59 8-8 8zm0-14c-2.21 0-4 1.79-4 4h2c0-1.1.9-2 2-2s2 .9 2 2c0 2-3 1.75-3 5h2c0-2.25 3-2.5 3-5 0-2.21-1.79-4-4-4z"/>
</symbol><symbol viewBox="0 0 28 28" id="icon-applications">
    <g fill-opacity="0" stroke-width="2" stroke="currentColor">
        <circle cx="14" cy="4" r="3"/>
        <circle cx="4" cy="14" r="3"/>
        <circle cx="14" cy="24" r="3"/>
        <circle cx="24" cy="14" r="3"/>
    </g>
    <g fill="currentColor">
        <path d="M3 3 H10 L8 5 H5 V8 L3 10"/>
        <path d="M18 3 H25 V10 L23 8 V5 H20"/>
        <path d="M25 18 V25 H18 L20 23 H23 V20"/>
        <path d="M10 25 H3 V18 L5 20 V23 H8"/>
    </g>         
</symbol><symbol viewBox="0 0 12 12" id="icon-arrow">
    <path fill="currentColor" d="M0 7 l6 -7 6 7 h-4 v5 h-4 v-5 z"/>
</symbol><symbol viewBox="0 0 24 24" id="icon-arrow-down" xmlns="http://www.w3.org/2000/svg"><path fill="currentColor" d="M7.41 8.59L12 13.17l4.59-4.58L18 10l-6 6-6-6 1.41-1.41z"/><path fill="none" d="M0 0h24v24H0V0z"/></symbol><symbol viewBox="0 0 20.57 38" id="icon-arrow-left">
    <path fill="currentColor" d="M18.54 2L2 18.86 18.57 36"/>
</symbol><symbol viewBox="0 0 24 24" id="icon-arrow-right" xmlns="http://www.w3.org/2000/svg"><path fill="currentColor" d="M8.59 16.59L13.17 12 8.59 7.41 10 6l6 6-6 6-1.41-1.41z"/><path fill="none" d="M0 0h24v24H0V0z"/></symbol><symbol viewBox="0 0 24 24" fill="currentColor" id="icon-cancel" xmlns="http://www.w3.org/2000/svg"><path d="M12 2C6.47 2 2 6.47 2 12s4.47 10 10 10 10-4.47 10-10S17.53 2 12 2zm5 13.59L15.59 17 12 13.41 8.41 17 7 15.59 10.59 12 7 8.41 8.41 7 12 10.59 15.59 7 17 8.41 13.41 12 17 15.59z"/><path d="M0 0h24v24H0z" fill="none"/></symbol><symbol viewBox="0 0 24 24" id="icon-check-fail" xmlns="http://www.w3.org/2000/svg"><path d="M0 0h24v24H0z" fill="none"/><path fill="currentColor" d="M12 2C6.48 2 2 6.48 2 12s4.48 10 10 10 10-4.48 10-10S17.52 2 12 2zm5 11H7v-2h10v2z"/></symbol><symbol viewBox="0 0 24 24" id="icon-check-success" xmlns="http://www.w3.org/2000/svg"><path d="M0 0h24v24H0z" fill="none"/><path fill="currentColor" d="M12 2C6.48 2 2 6.48 2 12s4.48 10 10 10 10-4.48 10-10S17.52 2 12 2zm-2 15l-5-5 1.41-1.41L10 14.17l7.59-7.59L19 8l-9 9z"/></symbol><symbol viewBox="0 0 24 24" id="icon-circle">
  <circle cx="12" cy="12" r="6" data-class="spinner"/>
</symbol><symbol viewBox="0 0 24 24" id="icon-close" xmlns="http://www.w3.org/2000/svg">
<path fill="currentColor" d="M19 6.41L17.59 5 12 10.59 6.41 5 5 6.41 10.59 12 5 17.59 6.41 19 12 13.41 17.59 19 19 17.59 13.41 12z"/>
<path d="M0 0h24v24H0z" fill="none"/></symbol><symbol viewBox="0 0 24 24" id="icon-close-sidebar" xmlns="http://www.w3.org/2000/svg">
<path fill="currentColor" d="M5.59 7.41L10.18 12l-4.59 4.59L7 18l6-6-6-6zM16 6h2v12h-2z"/>
<path fill="none" d="M0 0h24v24H0V0z"/>
</symbol><symbol viewBox="0 0 24 24" id="icon-cloud" xmlns="http://www.w3.org/2000/svg"><path fill="currentColor" d="M19.35 10.04C18.67 6.59 15.64 4 12 4 9.11 4 6.6 5.64 5.35 8.04 2.34 8.36 0 10.91 0 14c0 3.31 2.69 6 6 6h13c2.76 0 5-2.24 5-5 0-2.64-2.05-4.78-4.65-4.96z"/></symbol><symbol viewBox="0 0 24 24" id="icon-done" xmlns="http://www.w3.org/2000/svg">
    <path fill="none" d="M0 0h24v24H0z"/>
    <path fill="currentColor" d="M9 16.2L4.8 12l-1.4 1.4L9 19 21 7l-1.4-1.4L9 16.2z"/>
</symbol><symbol viewBox="0 0 9.25 14" id="icon-edit">
    <path fill="currentColor" d="M8.239,3.237 L5.641,1.737 L6.641,0.005 L9.239,1.505 L8.239,3.237 ZM3.239,11.897 L0.641,10.397 L5.141,2.603 L7.739,4.103 L3.239,11.897 ZM1.373,13.129 L0.873,13.995 L0.007,13.495 L0.507,12.629 L0.641,10.397 L3.239,11.897 L1.373,13.129 Z"/>
</symbol><symbol viewBox="0 0 24 24" id="icon-error-outline" xmlns="http://www.w3.org/2000/svg">
    <path fill="none" d="M0 0h24v24H0V0z"/>
    <path fill="currentColor" d="M11 15h2v2h-2zm0-8h2v6h-2zm.99-5C6.47 2 2 6.48 2 12s4.47 10 9.99 10C17.52 22 22 17.52 22 12S17.52 2 11.99 2zM12 20c-4.42 0-8-3.58-8-8s3.58-8 8-8 8 3.58 8 8-3.58 8-8 8z"/>
</symbol><symbol viewBox="0 0 512 512" id="icon-folder">
    <path fill="currentColor" d="M261.722 93l-56-50H0v426h512V93H261.722zM482 439H30V173h452v266zm0-296H30V73h164.278l56 50H482v20z"/>
    <path fill="currentColor" d="M256 191c-63.411 0-115 51.589-115 115s51.589 115 115 115 115-51.589 115-115-51.589-115-115-115zm0 200c-46.869 0-85-38.131-85-85s38.131-85 85-85 85 38.131 85 85-38.131 85-85 85z"/>
    <path fill="currentColor" d="M220.401 285.52l-33.92 20.64v7.04l33.92 20v-16.96l-11.84-6.96 11.84-7.6zM268.32 273.2L227.121 330h16.719l41.281-56.8zM291.599 285.52v16.16l11.84 7.6-11.84 6.96v16.96l33.92-20v-7.04z"/>
</symbol><symbol viewBox="0 0 24 24" id="icon-left" xmlns="http://www.w3.org/2000/svg"><path fill="currentColor" d="M11.67 3.87L9.9 2.1 0 12l9.9 9.9 1.77-1.77L3.54 12z"/><path fill="none" d="M0 0h24v24H0z"/></symbol><symbol viewBox="0 0 24 24" id="icon-loader" xmlns="http://www.w3.org/2000/svg"><path fill="currentColor" d="M12 6v3l4-4-4-4v3c-4.42 0-8 3.58-8 8 0 1.57.46 3.03 1.24 4.26L6.7 14.8c-.45-.83-.7-1.79-.7-2.8 0-3.31 2.69-6 6-6zm6.76 1.74L17.3 9.2c.44.84.7 1.79.7 2.8 0 3.31-2.69 6-6 6v-3l-4 4 4 4v-3c4.42 0 8-3.58 8-8 0-1.57-.46-3.03-1.24-4.26z"/><path d="M0 0h24v24H0z" fill="none"/></symbol><symbol viewBox="0 0 40 40" id="icon-models">
    <circle cx="10" cy="10" r="6" stroke="currentColor" stroke-width="4" fill-opacity="0"/>
    <circle cx="30" cy="10" r="6" stroke="currentColor" stroke-width="4" fill-opacity="0"/>
    <circle cx="10" cy="30" r="6" stroke="currentColor" stroke-width="4" fill-opacity="0"/>
    <circle cx="30" cy="30" r="6" stroke="currentColor" stroke-width="4" fill-opacity="0"/>
</symbol><symbol viewBox="0 0 24 24" id="icon-pending" xmlns="http://www.w3.org/2000/svg">
    <g fill="currentColor">
        <path d="M11.99 2C6.47 2 2 6.48 2 12s4.47 10 9.99 10C17.52 22 22 17.52 22 12S17.52 2 11.99 2zM12 20c-4.42 0-8-3.58-8-8s3.58-8 8-8 8 3.58 8 8-3.58 8-8 8z"/>
        <path d="M0 0h24v24H0z" fill="none"/>
        <path d="M12.5 7H11v6l5.25 3.15.75-1.23-4.5-2.67z"/>
    </g>
</symbol><symbol viewBox="0 0 199 184" id="icon-pipline">
    <path fill="currentColor" d="m0,25l0,25l50,0l0,-16l63.4,0c34.9,0 64.2,0.3 65.1,0.6c3.7,1.5 4.5,5.6 4.5,24.4l0,18.2l-2.9,2.9c-2.5,2.4 -3.7,2.9 -8,2.9l-5.1,0l0,-17l-25,12.5l-25,12.5l0,-25l-51,0l0,17l-22.6,0c-14.5,0 -24.1,0.4 -26.6,1.2c-5.1,1.5 -12.6,8.2 -14.9,13.3c-1.6,3.5 -1.9,6.8 -1.9,27.5s0.3,24 1.9,27.5c2.3,5.1 9.8,11.8 14.9,13.3c2.7,0.8 16,1.2 43.1,1.2l39.1,0l0,8.5c0,4.7 0.2,8.5 0.5,8.5s11.3,-5.4 24.5,-12s24.2,-12 24.5,-12c0.3,0 0.5,5.4 0.5,12l0,12l51,0l0,-51l-51,0l0,24l-24,-12c-13.2,-6.6 -24.4,-12 -25,-12c-0.6,0 -1,3.3 -1,8l0,8l-77.9,0l-2,-2.6c-2,-2.5 -2.1,-4 -2.1,-21.5c0,-18.4 0,-18.8 2.4,-21.6l2.4,-2.8l22.1,-0.3l22.1,-0.3l0,17.1l51,0l0,-12c0,-6.6 0.2,-12 0.5,-12s11.3,5.4 24.5,12s24.2,12 24.5,12c0.3,0 0.5,-3.8 0.5,-8.4l0,-8.4l8.3,-0.3c7.2,-0.4 9,-0.8 13.3,-3.4c3,-1.9 6,-4.9 7.9,-7.9l3,-4.9l0.3,-24.3c0.3,-23.1 0.2,-24.4 -1.9,-28.8c-1.2,-2.6 -4,-6.2 -6.2,-8.1c-7.6,-6.5 -7.1,-6.5 -77.9,-6.5l-63.8,0l0,-16l-50,0l0,25zm33,0l0,8l-16,0l0,-16l16,0l0,8zm66,66.5l0,7.5l-15,0l0,-15l15,0l0,7.5zm84,66.5l0,8l-16,0l0,-16l16,0l0,8z"/>
</symbol><symbol viewBox="0 0 12 12" id="icon-plus">
    <path fill="currentColor" d="M12.000,7.000 L7.000,7.000 L7.000,12.000 L5.000,12.000 L5.000,7.000 L-0.000,7.000 L-0.000,5.000 L5.000,5.000 L5.000,-0.000 L7.000,-0.000 L7.000,5.000 L12.000,5.000 L12.000,7.000 Z"/>
</symbol><symbol viewBox="0 0 24 24" id="icon-remove" xmlns="http://www.w3.org/2000/svg"><path fill="currentColor" d="M6 19c0 1.1.9 2 2 2h8c1.1 0 2-.9 2-2V7H6v12zM19 4h-3.5l-1-1h-5l-1 1H5v2h14V4z"/><path d="M0 0h24v24H0z" fill="none"/></symbol><symbol viewBox="0 0 24 24" id="icon-remove_circle" xmlns="http://www.w3.org/2000/svg"><path d="M0 0h24v24H0z" fill="currentColor"/><path d="M12 2C6.48 2 2 6.48 2 12s4.48 10 10 10 10-4.48 10-10S17.52 2 12 2zm5 11H7v-2h10v2z"/></symbol><symbol viewBox="0 0 24 24" id="icon-right" xmlns="http://www.w3.org/2000/svg"><path fill="currentColor" d="M5.88 4.12L13.76 12l-7.88 7.88L8 22l10-10L8 2z"/><path fill="none" d="M0 0h24v24H0z"/></symbol><symbol viewBox="0 0 24 24" id="icon-search">
    <path fill="currentColor" d="M15.5 14h-.79l-.28-.27C15.41 12.59 16 11.11 16 9.5 16 5.91 13.09 3 9.5 3S3 5.91 3 9.5 5.91 16 9.5 16c1.61 0 3.09-.59 4.23-1.57l.27.28v.79l5 4.99L20.49 19l-4.99-5zm-6 0C7.01 14 5 11.99 5 9.5S7.01 5 9.5 5 14 7.01 14 9.5 11.99 14 9.5 14z"/>
    <path d="M0 0h24v24H0z" fill="none"/>
</symbol><symbol viewBox="0 0 20 20" id="icon-settings" xmlns="http://www.w3.org/2000/svg"><path fill="none" d="M0 0h20v20H0V0z"/><path fill="currentColor" d="M15.95 10.78c.03-.25.05-.51.05-.78s-.02-.53-.06-.78l1.69-1.32c.15-.12.19-.34.1-.51l-1.6-2.77c-.1-.18-.31-.24-.49-.18l-1.99.8c-.42-.32-.86-.58-1.35-.78L12 2.34c-.03-.2-.2-.34-.4-.34H8.4c-.2 0-.36.14-.39.34l-.3 2.12c-.49.2-.94.47-1.35.78l-1.99-.8c-.18-.07-.39 0-.49.18l-1.6 2.77c-.1.18-.06.39.1.51l1.69 1.32c-.04.25-.07.52-.07.78s.02.53.06.78L2.37 12.1c-.15.12-.19.34-.1.51l1.6 2.77c.1.18.31.24.49.18l1.99-.8c.42.32.86.58 1.35.78l.3 2.12c.04.2.2.34.4.34h3.2c.2 0 .37-.14.39-.34l.3-2.12c.49-.2.94-.47 1.35-.78l1.99.8c.18.07.39 0 .49-.18l1.6-2.77c.1-.18.06-.39-.1-.51l-1.67-1.32zM10 13c-1.65 0-3-1.35-3-3s1.35-3 3-3 3 1.35 3 3-1.35 3-3 3z"/></symbol><symbol viewBox="0 0 24 24" id="icon-star" xmlns="http://www.w3.org/2000/svg"><path d="M0 0h24v24H0z" fill="none"/><path fill="currentColor" style="stroke: orange;stroke-width: 2px" d="M12 17.27L18.18 21l-1.64-7.03L22 9.24l-7.19-.61L12 2 9.19 8.63 2 9.24l5.46 4.73L5.82 21z"/><path d="M0 0h24v24H0z" fill="none"/></symbol><symbol viewBox="0 0 10 11" id="icon-start">
    <path fill="currentColor" d="M1338.68 590.87l-9.26 5.77V586.1z" transform="translate(-1329 -586)"/>
</symbol><symbol viewBox="0 0 24 24" id="icon-timemachine" xmlns="http://www.w3.org/2000/svg"><path stroke="none" fill="none" d="M0 0h24v24H0z"/><path stroke="currentColor" fill="currentColor" d="M13 3c-4.97 0-9 4.03-9 9H1l3.89 3.89.07.14L9 12H6c0-3.87 3.13-7 7-7s7 3.13 7 7-3.13 7-7 7c-1.93 0-3.68-.79-4.94-2.06l-1.42 1.42C8.27 19.99 10.51 21 13 21c4.97 0 9-4.03 9-9s-4.03-9-9-9zm-1 5v5l4.28 2.54.72-1.21-3.5-2.08V8H12z"/></symbol><symbol viewBox="0 0 1000 1000" enable-background="new 0 0 1000 1000" xml:space="preserve" id="icon-upgrade" xmlns="http://www.w3.org/2000/svg">
<g>
<path d="M500,990.3c-97.4,0-195.3-28.6-280.2-87c-11.1-7.7-13.9-22.9-6.3-34c7.7-11.2,22.9-13.9,34.1-6.3C423,983.6,660.3,963.2,811.8,814.1C963.1,665.4,984,432.7,861.4,260.8c-7.8-11-5.3-26.3,5.7-34.2c10.9-7.8,26.2-5.3,34.1,5.7C1037.9,424,1014.7,683.3,846.1,849C751.3,942.3,626.1,990.3,500,990.3z" style="
fill: #CB6E17;
"/>
<path d="M118.8,778.6c-7.6,0-15.2-3.6-20-10.3C-37.9,576.5-14.7,316.9,154,151.1C322.5-14.5,586.2-37.2,780.9,96.9c11.2,7.7,13.9,22.9,6.3,34c-7.7,11.2-23.2,13.8-34,6.3C577.5,16.2,340.1,36.8,188.3,186C36.9,334.8,16,567.8,138.8,739.9c7.8,11,5.3,26.3-5.7,34.1C128.7,777.1,123.8,778.6,118.8,778.6z" style="
fill: #CB6E17;
"/>
<path d="M678,149.9c-13.5,0-24.4-10.9-24.5-24.4c0-13.5,10.9-24.5,24.4-24.6l63.8-0.2l-22.8-56.1c-5.1-12.5,0.9-26.8,13.4-31.9c12.4-5.1,26.8,0.9,31.9,13.5l36.4,89.6c3.1,7.5,2.2,16.1-2.3,22.9c-4.5,6.8-12.1,10.8-20.2,10.9L678,149.9C678,149.9,678,149.9,678,149.9z" style="
    fill: #CB6E17;
"/>
<path d="M248.6,980.2c-9.7,0-18.9-5.8-22.7-15.4l-36.6-91.5c-3-7.5-2.1-16.1,2.5-22.9c4.6-6.7,12.1-10.7,20.3-10.7c0,0,0,0,0,0l98.1,0.2c13.5,0,24.5,11,24.4,24.5c0,13.5-11.9,26.1-24.5,24.4l-62-0.1l23.1,58c5,12.6-1.1,26.8-13.7,31.8C254.7,979.6,251.6,980.2,248.6,980.2z" style="
    fill: #CB6E17;
"/>
<path d="M623.3,646.6H378.7c-13.5,0-24.5-11-24.5-24.5v-96.4c0-13.5,11-24.5,24.5-24.5c13.5,0,24.5,11,24.5,24.5v71.9h195.6V427.1c0-13.5,11-24.5,24.5-24.5h45.6l-168.8-184l-169,184.6h50.6c13.5,0,24.5,11,24.5,24.5c0,13.5-11,24.5-24.5,24.5H275.6c-9.7,0-18.5-5.7-22.4-14.6c-3.9-8.9-2.2-19.2,4.4-26.4L482,165.9c4.6-5.1,11.2-8,18.1-8l0,0c6.9,0,13.4,2.9,18.1,7.9l224.4,244.7c6.6,7.1,8.3,17.5,4.4,26.4c-3.9,8.9-12.7,14.6-22.4,14.6h-76.7v170.5C647.7,635.6,636.8,646.6,623.3,646.6z" style="fill: #199473;"/><path d="M622.4,748.3H377.7c-13.5,0-24.5-11-24.5-24.5c0-13.5,11-24.5,24.5-24.5h244.7c13.5,0,24.5,11,24.5,24.5C646.9,737.3,635.9,748.3,622.4,748.3z" style="
    fill: #199473;
"/><path d="M573.4,843.9H426.6c-13.5,0-24.5-11-24.5-24.5c0-13.5,11-24.5,24.5-24.5h146.8c13.5,0,24.5,11,24.5,24.5C597.9,832.9,586.9,843.9,573.4,843.9z" style="
    fill: #199473;
"/></g>
</symbol><symbol viewBox="0 0 24 24" id="icon-warning">
    <path fill="currentColor" d="M4.47 21h15.06c1.54 0 2.5-1.67 1.73-3L13.73 4.99c-.77-1.33-2.69-1.33-3.46 0L2.74 18c-.77 1.33.19 3 1.73 3zM12 14c-.55 0-1-.45-1-1v-2c0-.55.45-1 1-1s1 .45 1 1v2c0 .55-.45 1-1 1zm1 4h-2v-2h2v2z"/>
</symbol><symbol viewBox="0 0 24 24" id="info" xmlns="http://www.w3.org/2000/svg">
  <path d="M0 0h24v24H0z" fill="none"/>
  <path fill="currentColor" d="M12 2C6.48 2 2 6.48 2 12s4.48 10 10 10 10-4.48 10-10S17.52 2 12 2zm1 15h-2v-6h2v6zm0-8h-2V7h2v2z"/>
</symbol><symbol viewBox="0 0 420 98" id="logo" xmlns="http://www.w3.org/2000/svg">
 <metadata id="bsmetadata8">image/svg+xml</metadata>
 <defs>
  <clipPath clipPathUnits="userSpaceOnUse" id="bsclipPath20">
   <path d="m0,475l1366,0l0,-475l-1366,0l0,475z" id="bspath18"/>
  </clipPath>
  <clipPath clipPathUnits="userSpaceOnUse" id="bsclipPath84">
   <path d="m117.6,194.083l88.769,0l0,-89.238l-88.769,0l0,89.238z" id="bspath82"/>
  </clipPath>
  <clipPath clipPathUnits="userSpaceOnUse" id="bsclipPath272">
   <path d="m837.205,202.2l-15.191,-10.217l-10.124,-15.254l-3.517,-17.965l3.626,-17.946l10.218,-15.19l15.253,-10.125l17.966,-3.517l17.945,3.627l15.19,10.218l10.125,15.252l3.517,17.967l-3.627,17.945l-10.217,15.19l-15.253,10.125l-17.967,3.516l-17.944,-3.626zm26.209,-38.553l0,19.324l11.823,0l0,-48.31l-11.823,0l0,18.918l-17.567,0l0,-18.918l-11.824,0l0,48.31l11.824,0l0,-19.324l17.567,0z" id="bspath270"/>
  </clipPath>
  <clipPath clipPathUnits="userSpaceOnUse" id="bsclipPath280">
   <path d="m810.6,202.083l88.769,0l0,-89.238l-88.769,0l0,89.238z" id="bspath278"/>
  </clipPath>
  <clipPath clipPathUnits="userSpaceOnUse" id="bsclipPath296">
   <path d="m-983.25009,525.25001l1366,0l0,-475l-1366,0l0,475z" id="bspath294"/>
  </clipPath>
  <clipPath clipPathUnits="userSpaceOnUse" id="bsclipPath464">
   <path d="m306.715,200.117l68.368,0l0,-68.728l-68.368,0l0,68.728z" id="bspath462"/>
  </clipPath>
  <clipPath clipPathUnits="userSpaceOnUse" id="bsclipPath540">
   <path d="m342.025,100.612l32.921,0l0,-33.0945l-32.921,0l0,33.0945z" id="bspath538"/>
  </clipPath>
  <clipPath clipPathUnits="userSpaceOnUse" id="bsclipPath616">
   <path d="m796.6,415.083l88.769,0l0,-89.238l-88.769,0l0,89.238z" id="bspath614"/>
  </clipPath>
  <clipPath clipPathUnits="userSpaceOnUse" id="bsclipPath692">
   <path d="m2.46491,471.36701l68.365,0l0,-68.729l-68.365,0l0,68.729z" id="bspath690"/>
  </clipPath>
  <clipPath clipPathUnits="userSpaceOnUse" id="bsclipPath768">
   <path d="m1021.03,321.612l32.92,0l0,-33.094l-32.92,0l0,33.094z" id="bspath766"/>
  </clipPath>
  <clipPath clipPathUnits="userSpaceOnUse" id="bsclipPath904">
   <path d="m1025.131,202.156l-10.298,-6.927l-6.864,-10.34l-2.384,-12.179l2.459,-12.164l6.926,-10.298l10.341,-6.865l12.178,-2.383l12.166,2.458l10.298,6.927l6.862,10.34l2.384,12.179l-2.458,12.165l-6.926,10.298l-10.34,6.863l-12.18,2.384l-12.164,-2.458zm17.766,-26.136l0,13.1l8.016,0l0,-32.749l-8.016,0l0,12.824l-11.907,0l0,-12.824l-8.017,0l0,32.749l8.017,0l0,-13.1l11.907,0z" id="bspath902"/>
  </clipPath>
  <clipPath clipPathUnits="userSpaceOnUse" id="bsclipPath912">
   <path d="m1007.1,202.076l60.17,0l0,-60.494l-60.17,0l0,60.494z" id="bspath910"/>
  </clipPath>
  <clipPath clipPathUnits="userSpaceOnUse" id="bsclipPath928">
   <path d="m0,475l1366,0l0,-475l-1366,0l0,475z" id="bspath926"/>
  </clipPath>
  <clipPath clipPathUnits="userSpaceOnUse" id="bsclipPath1052">
   <path d="m1043.773,109.007l-5.894,-3.964l-3.928,-5.92l-1.366,-6.971l1.407,-6.963l3.965,-5.895l5.919,-3.93l6.973,-1.364l6.962,1.407l5.895,3.965l3.93,5.919l1.364,6.972l-1.407,6.963l-3.965,5.895l-5.919,3.928l-6.972,1.366l-6.964,-1.408zm10.171,-14.96l0,7.498l4.588,0l0,-18.746l-4.588,0l0,7.341l-6.817,0l0,-7.341l-4.588,0l0,18.746l4.588,0l0,-7.498l6.817,0z" id="bspath1050"/>
  </clipPath>
  <clipPath clipPathUnits="userSpaceOnUse" id="bsclipPath1060">
   <path d="m1033.45,108.962l34.45,0l0,-34.629l-34.45,0l0,34.629z" id="bspath1058"/>
  </clipPath>
  <clipPath clipPathUnits="userSpaceOnUse" id="bsclipPath1076">
   <path d="m0,475l1366,0l0,-475l-1366,0l0,475z" id="bspath1074"/>
  </clipPath>
  <clipPath clipPathUnits="userSpaceOnUse" id="bsclipPath1088">
   <path d="m295.519,374.447l60.542,0l0,-60.862l-60.542,0l0,60.862z" id="bspath1086"/>
  </clipPath>
  <clipPath clipPathUnits="userSpaceOnUse" id="bsclipPath1112">
   <path d="m138.038,403.893l121.084,0l0,-121.722l-121.084,0l0,121.722z" id="bspath1110"/>
  </clipPath>
  <clipPath clipPathUnits="userSpaceOnUse" id="bsclipPath1136">
   <path d="m386.759,359.723l30.271,0l0,-30.43l-30.271,0l0,30.43z" id="bspath1134"/>
  </clipPath>
  <clipPath clipPathUnits="userSpaceOnUse" id="bsclipPath1160">
   <path d="m439.38,352.362l15.135,0l0,-15.216l-15.135,0l0,15.216z" id="bspath1158"/>
  </clipPath>
 </defs>
 <g class="bslayer">
  <title>Layer 1</title>
  <g id="bsg10" transform="matrix(1.33333 0 0 -1.33333 0 633.333)">
   <g id="bsg290">
    <g clip-path="url(#bsclipPath296)" id="bsg292">
     <g id="bsg630" transform="translate(1069.51 379.033)">
      <path d="m-983.25009,50.25001l0,20.438l4.945,0l0,-6.459l-0.056,-1.258l0.056,0c0.419,0.723 1.03,1.296 1.83,1.715c0.8,0.418 1.687,0.629 2.659,0.629c3.525,0 5.288,-1.84 5.288,-5.518l0,-9.547l-4.946,0l0,8.633c0,1.295 -0.543,1.944 -1.629,1.944c-1.029,0 -1.82,-0.363 -2.373,-1.087c-0.552,-0.724 -0.829,-1.677 -0.829,-2.859l0,-6.631l-4.945,0z" fill="#ffffff" fill-rule="nonzero" id="bspath632"/>
     </g>
     <g id="bsg634" transform="translate(1088.77 377.69)">
      <path d="m-983.25009,50.25001c0.533,-0.362 1.038,-0.543 1.515,-0.543c1.181,0 1.972,0.496 2.373,1.486l0.285,0.686l-6.26,14.435l5.603,0l2.172,-6.774l0.543,-2.287l0.057,0c0.191,0.934 0.353,1.667 0.486,2.202l1.859,6.859l5.402,0l-6.031,-16.293c-0.572,-1.524 -1.415,-2.644 -2.53,-3.359c-1.115,-0.715 -2.321,-1.072 -3.617,-1.072c-0.571,0 -1.143,0.087 -1.714,0.258c-0.573,0.172 -1.001,0.342 -1.287,0.514l-0.428,0.258l1.572,3.63z" fill="#ffffff" fill-rule="nonzero" id="bspath636"/>
     </g>
     <g id="bsg638" transform="translate(1110.7 388.981)">
      <path d="m-983.25009,50.25001c-0.553,-0.629 -0.828,-1.486 -0.828,-2.572c0,-1.087 0.266,-1.964 0.8,-2.63c0.533,-0.668 1.229,-1.001 2.087,-1.001c0.819,0 1.504,0.305 2.058,0.914c0.552,0.61 0.828,1.517 0.828,2.717c0,0.952 -0.252,1.777 -0.757,2.471c-0.504,0.696 -1.214,1.045 -2.129,1.045c-0.82,0 -1.506,-0.315 -2.059,-0.944m-3.987,-8.161c-1.21,1.419 -1.815,3.283 -1.815,5.589c0,2.305 0.623,4.163 1.872,5.574c1.248,1.41 2.863,2.115 4.845,2.115c1.791,0 3.078,-0.391 3.859,-1.173l0.058,0c-0.02,0.191 -0.029,0.411 -0.029,0.658l0,5.889l4.945,0l0,-20.439l-4.631,0l0,0.972l0.029,0.829l-0.057,0c-0.934,-1.429 -2.355,-2.144 -4.26,-2.144c-2,0 -3.606,0.71 -4.816,2.13" fill="#ffffff" fill-rule="nonzero" id="bspath640"/>
     </g>
     <g id="bsg642" transform="translate(1125.19 379.033)">
      <path d="m-983.25009,50.25001l0,14.721l4.745,0l0,-2.486l-0.057,-0.915l0.057,0c0.324,1.029 0.919,1.896 1.787,2.602c0.867,0.704 1.834,1.057 2.902,1.057c0.152,0 0.342,-0.019 0.571,-0.057l0,-4.859c-0.171,0.057 -0.505,0.085 -1,0.085c-1.334,0 -2.344,-0.391 -3.03,-1.171c-0.686,-0.782 -1.03,-1.869 -1.03,-3.26l0,-5.717l-4.945,0z" fill="#ffffff" fill-rule="nonzero" id="bspath644"/>
     </g>
     <g id="bsg646" transform="translate(1142.86 386.352)">
      <path d="m-983.25009,50.25001c0,-1.068 0.324,-1.925 0.972,-2.573c0.647,-0.649 1.438,-0.972 2.373,-0.972c0.933,0 1.723,0.323 2.372,0.972c0.648,0.648 0.971,1.505 0.971,2.573c0,1.086 -0.323,1.962 -0.971,2.629c-0.649,0.668 -1.439,1.001 -2.372,1.001c-0.935,0 -1.726,-0.333 -2.373,-1.001c-0.648,-0.667 -0.972,-1.543 -0.972,-2.629m-2.602,-5.532c-1.6,1.42 -2.401,3.264 -2.401,5.532c0,2.267 0.801,4.126 2.401,5.574c1.601,1.448 3.574,2.173 5.917,2.173c2.364,0 4.35,-0.72 5.961,-2.159c1.61,-1.439 2.415,-3.302 2.415,-5.588c0,-2.268 -0.8,-4.112 -2.401,-5.532c-1.601,-1.419 -3.583,-2.13 -5.945,-2.13c-2.364,0 -4.346,0.711 -5.947,2.13" fill="#ffffff" fill-rule="nonzero" id="bspath648"/>
     </g>
     <g id="bsg650" transform="translate(1157.72 380.806)">
      <path d="m-983.25009,50.25001l1.315,1.886c1.163,-1.124 2.582,-1.687 4.259,-1.687c0.743,0 1.339,0.167 1.787,0.501c0.448,0.333 0.672,0.796 0.672,1.386c0,0.496 -0.258,0.925 -0.772,1.287c-0.514,0.361 -1.134,0.676 -1.858,0.942c-0.724,0.267 -1.449,0.563 -2.173,0.887c-0.724,0.324 -1.343,0.796 -1.858,1.415c-0.515,0.619 -0.771,1.367 -0.771,2.244c0,1.315 0.495,2.339 1.486,3.073c0.991,0.733 2.229,1.101 3.716,1.101c1.944,0 3.507,-0.535 4.688,-1.601l-1.115,-2.001c-0.419,0.4 -0.967,0.714 -1.644,0.943c-0.675,0.229 -1.348,0.343 -2.015,0.343c-0.742,0 -1.339,-0.153 -1.786,-0.457c-0.448,-0.305 -0.672,-0.753 -0.672,-1.344c0,-0.514 0.258,-0.953 0.772,-1.314c0.515,-0.363 1.133,-0.673 1.858,-0.93c0.724,-0.257 1.453,-0.548 2.187,-0.872c0.734,-0.324 1.358,-0.796 1.872,-1.414c0.515,-0.62 0.772,-1.368 0.772,-2.244c0,-1.24 -0.486,-2.259 -1.458,-3.059c-0.972,-0.801 -2.22,-1.201 -3.744,-1.201c-2.288,0 -4.127,0.705 -5.518,2.116" fill="#ffffff" fill-rule="nonzero" id="bspath652"/>
     </g>
     <g id="bsg654" transform="translate(1175.84 386.208)">
      <path d="m-983.25009,50.25001c0,-1.372 0.366,-2.568 1.101,-3.588c0.733,-1.019 1.729,-1.529 2.987,-1.529c1.182,0 2.173,0.462 2.973,1.387c0.8,0.924 1.2,2.176 1.2,3.758c0,1.562 -0.376,2.816 -1.128,3.759c-0.754,0.944 -1.74,1.416 -2.959,1.416c-1.182,0 -2.173,-0.439 -2.974,-1.315c-0.8,-0.877 -1.2,-2.174 -1.2,-3.888m-2.687,-12.892l0,20.181l2.573,0l0,-1.287l-0.086,-1.085l0.057,0c0.457,0.857 1.115,1.523 1.972,2.001c0.859,0.476 1.82,0.715 2.888,0.715c1.943,0 3.487,-0.697 4.631,-2.088c1.143,-1.391 1.715,-3.22 1.715,-5.488c0,-2.287 -0.611,-4.121 -1.83,-5.503c-1.219,-1.382 -2.792,-2.073 -4.716,-2.073c-1.925,0 -3.421,0.82 -4.489,2.459l-0.056,0c0.076,-0.342 0.114,-0.763 0.114,-1.257l0,-6.575l-2.773,0z" fill="#ffffff" fill-rule="nonzero" id="bspath656"/>
     </g>
     <g id="bsg658" transform="translate(1191.77 379.033)">
      <path d="m-983.25009,50.25001l0,20.182l2.773,0l0,-7.49l-0.114,-1.2l0.057,0c0.4,0.838 1.076,1.601 2.03,2.286c0.952,0.686 2.086,1.03 3.401,1.03c3.297,0 4.946,-1.85 4.946,-5.546l0,-9.262l-2.774,0l0,8.633c0,1.162 -0.185,2.058 -0.556,2.687c-0.372,0.629 -1.092,0.944 -2.159,0.944c-1.391,0 -2.543,-0.511 -3.458,-1.53c-0.916,-1.019 -1.373,-2.311 -1.373,-3.874l0,-6.86l-2.773,0z" fill="#ffffff" fill-rule="nonzero" id="bspath660"/>
     </g>
     <g id="bsg662" transform="translate(1212.46 387.895)">
      <path d="m-983.25009,50.25001l7.747,0c-0.039,1.201 -0.387,2.134 -1.044,2.801c-0.657,0.667 -1.481,1.001 -2.473,1.001c-1.085,0 -2.015,-0.339 -2.787,-1.015c-0.771,-0.677 -1.253,-1.606 -1.443,-2.787m-2.973,-1.629c0,2.267 0.686,4.097 2.058,5.488c1.372,1.391 3.106,2.087 5.202,2.087c1.963,0 3.497,-0.643 4.603,-1.93c1.105,-1.286 1.658,-2.901 1.658,-4.845c0,-0.249 -0.038,-0.639 -0.114,-1.172l-10.52,0c0.076,-1.506 0.586,-2.683 1.529,-3.53c0.944,-0.849 2.091,-1.273 3.445,-1.273c1.582,0 3.002,0.562 4.259,1.687l1.172,-2.029c-0.686,-0.63 -1.539,-1.129 -2.558,-1.501c-1.02,-0.373 -2.034,-0.558 -3.044,-0.558c-2.249,0 -4.093,0.72 -5.531,2.159c-1.44,1.438 -2.159,3.244 -2.159,5.417" fill="#ffffff" fill-rule="nonzero" id="bspath664"/>
     </g>
     <g id="bsg666" transform="translate(1227.78 379.033)">
      <path d="m-983.25009,50.25001l0,14.464l2.688,0l0,-2.601l-0.086,-1.057l0.057,0c0.362,1.104 0.952,2.019 1.773,2.744c0.818,0.723 1.761,1.086 2.829,1.086c0.19,0 0.438,-0.019 0.743,-0.057l0,-2.744c-0.152,0.038 -0.419,0.057 -0.8,0.057c-1.448,0 -2.549,-0.586 -3.302,-1.759c-0.753,-1.171 -1.129,-2.548 -1.129,-4.13l0,-6.003l-2.773,0z" fill="#ffffff" fill-rule="nonzero" id="bspath668"/>
     </g>
     <g id="bsg670" transform="translate(1241.62 387.895)">
      <path d="m-983.25009,50.25001l7.747,0c-0.038,1.201 -0.386,2.134 -1.043,2.801c-0.658,0.667 -1.482,1.001 -2.474,1.001c-1.085,0 -2.014,-0.339 -2.787,-1.015c-0.771,-0.677 -1.253,-1.606 -1.443,-2.787m-2.973,-1.629c0,2.267 0.687,4.097 2.058,5.488c1.372,1.391 3.106,2.087 5.203,2.087c1.963,0 3.496,-0.643 4.602,-1.93c1.105,-1.286 1.658,-2.901 1.658,-4.845c0,-0.249 -0.038,-0.639 -0.114,-1.172l-10.52,0c0.076,-1.506 0.586,-2.683 1.529,-3.53c0.944,-0.849 2.092,-1.273 3.446,-1.273c1.581,0 3.001,0.562 4.258,1.687l1.172,-2.029c-0.685,-0.63 -1.539,-1.129 -2.557,-1.501c-1.021,-0.373 -2.035,-0.558 -3.045,-0.558c-2.249,0 -4.093,0.72 -5.531,2.159c-1.44,1.438 -2.159,3.244 -2.159,5.417" fill="#ffffff" fill-rule="nonzero" id="bspath672"/>
     </g>
     <path d="m273.54891,432.28501l2.973,0l0,-3.002l-2.973,0l0,3.002z" fill="#ffffff" fill-rule="nonzero" id="bspath674"/>
     <path d="m282.09591,443.74801l2.772,0l0,-14.464l-2.772,0l0,14.464z" fill="#ffffff" fill-rule="nonzero" id="bspath676"/>
     <g id="bsg678" transform="translate(1275.69 386.294)">
      <path d="m-983.25009,50.25001c0,-1.506 0.48,-2.75 1.443,-3.73c0.962,-0.982 2.14,-1.473 3.531,-1.473c1.372,0 2.544,0.496 3.516,1.487c0.972,0.99 1.457,2.23 1.457,3.716c0,1.487 -0.485,2.716 -1.457,3.688c-0.972,0.971 -2.144,1.457 -3.516,1.457c-1.391,0 -2.569,-0.486 -3.531,-1.457c-0.963,-0.972 -1.443,-2.201 -1.443,-3.688m-2.83,0c0,2.154 0.752,3.949 2.258,5.389c1.506,1.438 3.344,2.158 5.517,2.158c2.192,0 4.04,-0.714 5.545,-2.144c1.506,-1.429 2.259,-3.23 2.259,-5.403c0,-2.172 -0.753,-3.983 -2.259,-5.431c-1.505,-1.448 -3.344,-2.173 -5.516,-2.173c-2.173,0 -4.017,0.725 -5.532,2.173c-1.514,1.448 -2.272,3.259 -2.272,5.431" fill="#ffffff" fill-rule="nonzero" id="bspath680"/>
     </g>
     <g id="bsg682" transform="translate(1020.03 424)">
      <path d="m-983.25009,50.25001l-13.82,-2.793l-11.7,-7.869l-7.797,-11.747l-2.708,-13.838l2.793,-13.82l7.869,-11.7l11.747,-7.797l13.837,-2.708l13.82,2.793l11.7,7.869l7.797,11.747l2.709,13.837l-2.793,13.82l-7.869,11.7l-11.747,7.798l-13.838,2.708z" fill="#178cf2" fill-rule="nonzero" id="bspath684"/>
     </g>
     <g id="bsg686">
      <g id="bsg688"/>
      <g id="bsg700">
       <g clip-path="url(#bsclipPath692)" id="bsg698" opacity="0.25">
        <g id="bsg696" transform="translate(1043.57 377.481)">
         <path d="m-983.25009,50.25001l-5.616,9.626l14.54,0l-8.924,-9.626zm-9.028,-3.045l3.064,12.256l5.536,-9.491l-8.6,-2.765zm-14.283,12.5l0.165,0.171l16.759,0l-3.214,-12.855l-0.777,-0.25l-12.933,12.934zm9.868,-23.39l3.2,9.601l10.4,-10.401l-13.6,0.8zm-10.4,5.333l9.638,-5.622l-9.638,-9.637l0,15.259zm-8.676,-4.31l-2.319,9.926l10.213,-5.189l-7.894,-4.737zm-12.512,-0.144l9.105,9.437l0.364,-0.102l-0.141,0.333l0.35,0.363l2.344,-10.031l-12.022,0zm3.519,21.978l5.065,-11.867l-9.638,2.687l4.119,9.884l0.436,0l0.208,-0.354l0.12,0.354l16.848,0l0,-0.517l-10.91,-11.307l-0.32,0.163l0.093,-0.399l-0.43,-0.445l-5.121,12.001c-0.056,0.13 -0.204,0.19 -0.335,0.135c-0.13,-0.056 -0.19,-0.206 -0.135,-0.335m-13.788,0.704l12.781,0l-3.994,-9.586l-8.787,9.586zm8.8,8.458l4.67,-7.948l-14.406,0l9.736,7.948zm21.823,10.292l-11.826,-5.125l3.941,9.461l7.885,-4.336zm9.607,4.756l-8.595,-4.738l-0.178,0.102l0,13.409l8.773,-8.773zm2.668,-11.637l-0.308,0.538l-0.034,0.06l-10.405,6.003l8.4,4.631l4.832,-8.657l-2.485,-2.575zm11.306,10.983l0.772,-12.787l-9.919,3.306l0.609,0.632c0.041,-0.027 0.088,-0.045 0.138,-0.045c0.043,0 0.085,0.01 0.125,0.032c0.122,0.069 0.167,0.224 0.098,0.347l-0.014,0.025l8.191,8.49zm9.984,-22.342l-13.968,0l5.088,8.78l8.88,-8.78zm-19.468,12.512c0.029,-0.057 0.079,-0.103 0.144,-0.125l10.011,-3.337l-5.245,-9.05l-0.241,0l-6.228,10.897l1.559,1.615zm-1.928,-1.998l6.009,-10.514l-16.154,0l10.145,10.514zm-11.335,-10.514l0,17.771l10.724,-6.187l0.348,-0.608l-10.591,-10.976l-0.481,0zm-12.693,12.544l12.182,5.28l0,-17.463l-12.182,12.183zm-4.91,-12.191l-4.621,7.866l8.652,3.934l-4.031,-11.8zm4.573,11.806l12.159,-12.159l-16.313,0l4.154,12.159zm2.086,-24.734l10.433,10.814l0,-16.116l-10.433,5.302zm10.944,-5.368l0,16.71l0.178,0.184l12.741,-12.741l-12.919,-4.153zm9.909,-5.984l-9.542,5.566l12.766,4.103l-3.224,-9.669zm24.194,23.927l-0.647,0l-9.215,9.112l7.389,3.284c0.128,0.057 0.187,0.208 0.129,0.337c-0.057,0.129 -0.208,0.187 -0.337,0.13l-7.393,-3.287l-0.801,13.264l0.752,0.778c0.097,0.102 0.094,0.264 -0.007,0.361c-0.102,0.097 -0.263,0.095 -0.36,-0.006l-9.317,-9.655l-4.682,8.39l13.339,0.833c0.14,0.009 0.247,0.13 0.239,0.271c-0.009,0.14 -0.115,0.249 -0.271,0.239l-13.302,-0.832l4.097,8.193c0.064,0.126 0.013,0.279 -0.114,0.342c-0.126,0.063 -0.279,0.012 -0.342,-0.114l-4.137,-8.273l-9.123,9.124l0,0.753c0,0.141 -0.114,0.255 -0.255,0.255c-0.141,0 -0.256,-0.114 -0.256,-0.255l0,-14.6l-7.942,4.368l7.536,9.212c0.089,0.109 0.073,0.269 -0.036,0.358c-0.108,0.09 -0.269,0.074 -0.358,-0.035l-7.492,-9.158l-4.113,7.402c-0.069,0.124 -0.224,0.166 -0.347,0.099c-0.123,-0.068 -0.167,-0.223 -0.099,-0.347l4.211,-7.578l-0.085,-0.104l0.068,-0.038l-4.06,-9.744l-10.898,10.897c-0.099,0.1 -0.26,0.1 -0.36,0c-0.1,-0.099 -0.1,-0.261 0,-0.361l10.906,-10.906l-8.778,-3.99l-0.834,12.517c-0.01,0.141 -0.129,0.249 -0.272,0.237c-0.14,-0.009 -0.247,-0.13 -0.238,-0.271l0.833,-12.494l-9.08,3.302c-0.133,0.048 -0.279,-0.021 -0.327,-0.153c-0.048,-0.132 0.02,-0.279 0.152,-0.326l9.027,-3.283l-10.104,-8.248l-0.553,0c-0.141,0 -0.256,-0.114 -0.256,-0.255c0,-0.141 0.115,-0.255 0.256,-0.255l1.606,0l9.262,-10.105l-0.048,-0.116l0.078,-0.021l-0.846,-12.678c-0.009,-0.141 0.098,-0.262 0.238,-0.271c0.006,-0.001 0.012,-0.001 0.018,-0.001c0.133,0 0.245,0.103 0.254,0.238l0.838,12.572l9.712,-2.707l-9.328,-9.667l-1.661,-1.722c-0.097,-0.101 -0.094,-0.263 0.007,-0.36c0.05,-0.048 0.113,-0.072 0.177,-0.072c0.067,0 0.134,0.026 0.184,0.078l1.583,1.64l12.709,0l7.653,-10.205c0.05,-0.067 0.127,-0.102 0.204,-0.102c0.054,0 0.107,0.016 0.153,0.051c0.113,0.084 0.135,0.244 0.051,0.357l-7.56,10.081l7.959,4.776l0,-16.485l10.494,10.492l4.136,-8.272c0.063,-0.126 0.216,-0.178 0.342,-0.114c0.126,0.063 0.177,0.216 0.114,0.342l-4.097,8.195l14.832,-0.873l-11.439,11.438l0.228,0.073c-0.027,-0.132 0.053,-0.264 0.186,-0.298c0.021,-0.005 0.041,-0.007 0.062,-0.007c0.115,0 0.219,0.077 0.248,0.193l0.074,0.296l9.01,2.896l0.07,-0.12l0.122,0.132l7.575,-2.525c0.134,-0.046 0.278,0.028 0.323,0.161c0.044,0.134 -0.029,0.278 -0.162,0.323l-7.355,2.451l9.211,9.936l0.64,0c0.141,0 0.256,0.114 0.256,0.255c0,0.141 -0.115,0.255 -0.256,0.255" fill="#ffffff" fill-rule="nonzero" id="bspath694"/>
        </g>
       </g>
      </g>
     </g>
     <g id="bsg702" transform="translate(1003.75 369.19)">
      <path d="m-983.25009,50.25001l0,37.207l9.106,0l0,-14.883l13.53,0l0,14.883l9.106,0l0,-37.207l-9.106,0l0,14.57l-13.53,0l0,-14.57l-9.106,0z" fill="#ffffff" fill-rule="nonzero" id="bspath704"/>
     </g>
    </g>
   </g>
  </g>
 </g>
</symbol><symbol viewBox="0 0 24 24" id="merge" xmlns="http://www.w3.org/2000/svg"><path fill="currentColor" d="M3.5 18.49l6-6.01 4 4L22 6.92l-1.41-1.41-7.09 7.97-4-4L2 16.99z"/><path d="M0 0h24v24H0z" fill="none"/></symbol><symbol viewBox="0 0 24 24" id="monitoring" xmlns="http://www.w3.org/2000/svg"><path d="M0 0h24v24H0z" fill="none"/><path fill="currentColor" d="M20 18c1.1 0 1.99-.9 1.99-2L22 6c0-1.1-.9-2-2-2H4c-1.1 0-2 .9-2 2v10c0 1.1.9 2 2 2H0v2h24v-2h-4zM4 6h16v10H4V6z"/></symbol><symbol id="next" viewBox="0 0 612 612" xml:space="preserve" xmlns="http://www.w3.org/2000/svg">
<g>
	<g id="bv_x31_0_25_">
		<g>
			<path fill="currentColor" d="M306,0C136.992,0,0,136.992,0,306s136.992,306,306,306c168.988,0,306-136.992,306-306S475.008,0,306,0z M306,573.75
				C158.125,573.75,38.25,453.875,38.25,306C38.25,158.125,158.125,38.25,306,38.25c147.875,0,267.75,119.875,267.75,267.75
				C573.75,453.875,453.875,573.75,306,573.75z M392.751,142.749c-7.478-7.478-19.584-7.478-27.043,0l-146.44,146.44
				c-4.59,4.59-6.005,10.863-4.953,16.811c-1.052,5.929,0.382,12.221,4.953,16.811l146.44,146.44c7.479,7.459,19.584,7.459,27.043,0
				c7.478-7.478,7.478-19.584,0-27.043L256.543,306l136.188-136.189C400.21,162.333,400.21,150.227,392.751,142.749z"/>
		</g>
	</g>
</g>
  <g>
</g>
</symbol><symbol viewBox="0 0 24 24" id="profiler" xmlns="http://www.w3.org/2000/svg"><path fill="currentColor" d="M9 17H7v-7h2v7zm4 0h-2V7h2v10zm4 0h-2v-4h2v4zm2.5 2.1h-15V5h15v14.1zm0-16.1h-15c-1.1 0-2 .9-2 2v14c0 1.1.9 2 2 2h15c1.1 0 2-.9 2-2V5c0-1.1-.9-2-2-2z"/><path fill="none" d="M0 0h24v24H0z"/></symbol><symbol viewBox="0 0 394 394.00013" id="scatter" xmlns="http://www.w3.org/2000/svg">
  <g fill="currentColor">
  <path d="m99.253906 90c-14.160156.003906-25.640625 11.484375-25.636718 25.644531 0 14.160157 11.480468 25.640625 25.640624 25.640625 14.164063-.003906 25.640626-11.480468 25.640626-25.644531-.015626-14.15625-11.488282-25.628906-25.644532-25.640625zm0 0"/>
  <path d="m43.609375 225.640625c0 14.164063 11.480469 25.644531 25.644531 25.644531 14.160156 0 25.640625-11.480468 25.640625-25.644531 0-14.160156-11.480469-25.640625-25.640625-25.640625-14.15625.015625-25.625 11.488281-25.644531 25.640625zm0 0"/>
  <path d="m133.609375 185.640625c0 14.164063 11.480469 25.644531 25.644531 25.644531 14.160156 0 25.640625-11.480468 25.640625-25.644531 0-14.160156-11.480469-25.640625-25.640625-25.640625-14.15625.015625-25.625 11.488281-25.644531 25.640625zm0 0"/>
  <path d="m123.609375 285.640625c0 14.164063 11.480469 25.644531 25.644531 25.644531 14.160156 0 25.640625-11.480468 25.640625-25.644531 0-14.160156-11.480469-25.640625-25.640625-25.640625-14.15625.015625-25.625 11.488281-25.644531 25.640625zm0 0"/>
  <path d="m213.609375 255.640625c0 14.164063 11.480469 25.644531 25.644531 25.644531 14.160156 0 25.640625-11.480468 25.640625-25.644531 0-14.160156-11.480469-25.640625-25.640625-25.640625-14.15625.015625-25.625 11.488281-25.644531 25.640625zm0 0"/>
  <path d="m233.609375 165.640625c0 14.164063 11.480469 25.644531 25.644531 25.644531 14.160156 0 25.640625-11.480468 25.640625-25.644531 0-14.160156-11.480469-25.640625-25.640625-25.640625-14.15625.015625-25.625 11.488281-25.644531 25.640625zm0 0"/>
  <path d="m199.253906 60c-14.160156.003906-25.640625 11.484375-25.636718 25.644531 0 14.160157 11.480468 25.640625 25.640624 25.640625 14.164063-.003906 25.640626-11.480468 25.640626-25.644531-.015626-14.15625-11.488282-25.628906-25.644532-25.640625zm0 0"/>
  <path d="m282.253906 33c-14.160156.003906-25.640625 11.484375-25.636718 25.644531 0 14.160157 11.480468 25.640625 25.640624 25.640625 14.164063-.003906 25.640626-11.480468 25.640626-25.644531-.015626-14.15625-11.488282-25.628906-25.644532-25.640625zm0 0"/>
  <path d="m359.253906 141.285156c14.160156 0 25.640625-11.480468 25.640625-25.644531 0-14.160156-11.480469-25.640625-25.640625-25.640625-14.164062 0-25.644531 11.480469-25.644531 25.640625.019531 14.15625 11.488281 25.628906 25.644531 25.644531zm0 0"/>
  <path d="m368.253906 0c-14.160156.00390625-25.640625 11.484375-25.636718 25.644531 0 14.160157 11.480468 25.640625 25.640624 25.640625 14.164063-.003906 25.640626-11.480468 25.640626-25.644531-.015626-14.15625-11.488282-25.6289062-25.644532-25.640625zm0 0"/>
  <path d="m313.609375 215.640625c0 14.164063 11.480469 25.644531 25.644531 25.644531 14.160156 0 25.640625-11.480468 25.640625-25.644531 0-14.160156-11.480469-25.640625-25.640625-25.640625-14.15625.015625-25.625 11.488281-25.644531 25.640625zm0 0"/>
  <path d="m293.609375 305.640625c0 14.164063 11.480469 25.644531 25.644531 25.644531 14.160156 0 25.640625-11.480468 25.640625-25.644531 0-14.160156-11.480469-25.640625-25.640625-25.640625-14.15625.015625-25.625 11.488281-25.644531 25.640625zm0 0"/>
  <path d="m69.253906 350.285156c14.160156 0 25.640625-11.480468 25.640625-25.644531 0-14.160156-11.480469-25.640625-25.640625-25.640625-14.164062 0-25.644531 11.480469-25.644531 25.640625.019531 14.15625 11.488281 25.628906 25.644531 25.644531zm0 0"/>
</g>
</symbol><symbol viewBox="0 0 24 24" id="show">
  <path d="M2,12 
           C6,4 18,4 22,12 
           C18,20 6,20 2,12" fill="none" stroke="black" strokeWidth="2"/>
  <circle cx="12" cy="12" r="4"/>
</symbol><symbol viewBox="0 0 24 24" id="split" xmlns="http://www.w3.org/2000/svg"><path d="M0 0h24v24H0V0z" fill="none"/><path fill="currentColor" d="M3 15h8v-2H3v2zm0 4h8v-2H3v2zm0-8h8V9H3v2zm0-6v2h8V5H3zm10 0h8v14h-8V5z"/></symbol></svg>