<svg width="1080" height="1080" viewBox="0 0 1080 1080" fill="none" xmlns="http://www.w3.org/2000/svg">
<line x1="463.342" y1="412.708" x2="641.088" y2="411.82" stroke="#243B53" stroke-width="5"/>
<line x1="464.556" y1="413.015" x2="657.144" y2="518.562" stroke="#243B53" stroke-width="5"/>
<line x1="283.287" y1="572.803" x2="461.689" y2="413.344" stroke="#243B53" stroke-width="5"/>
<line x1="461.173" y1="414.207" x2="483.857" y2="337.901" stroke="#243B53" stroke-width="5"/>
<line x1="460.948" y1="415.882" x2="418.593" y2="264.674" stroke="#243B53" stroke-width="5"/>
<circle cx="421.185" cy="263.561" r="36.7415" transform="rotate(-73.4439 421.185 263.561)" fill="#243B53"/>
<circle cx="287.618" cy="568.484" r="40.2415" transform="rotate(-73.4439 287.618 568.484)" fill="#243B53" stroke="white" stroke-width="7"/>
<path d="M699.291 529.437C705.624 508.133 693.489 485.73 672.185 479.397C650.882 473.063 628.478 485.199 622.145 506.503C615.812 527.806 627.948 550.21 649.251 556.543C670.555 562.876 692.958 550.74 699.291 529.437Z" fill="#243B53" stroke="white" stroke-width="7"/>
<circle cx="460.383" cy="408.494" r="40.7415" transform="rotate(-73.4439 460.383 408.494)" fill="#243B53" stroke="white" stroke-width="8"/>
<path d="M687.291 416.437C693.624 395.133 681.489 372.73 660.185 366.397C638.882 360.063 616.478 372.199 610.145 393.503C603.812 414.806 615.948 437.21 637.251 443.543C658.555 449.876 680.958 437.74 687.291 416.437Z" fill="#243B53" stroke="white" stroke-width="7"/>
<circle cx="492.3" cy="309.901" r="40.2415" transform="rotate(-73.4439 492.3 309.901)" fill="#243B53" stroke="white" stroke-width="7"/>
<circle cx="421.185" cy="263.561" r="40.2415" transform="rotate(-73.4439 421.185 263.561)" fill="#243B53" stroke="white" stroke-width="7"/>
<mask id="path-13-outside-1" maskUnits="userSpaceOnUse" x="64" y="53.8031" width="770" height="770" fill="black">
<rect fill="white" x="64" y="53.8031" width="770" height="770"/>
<path d="M803.549 438.578C803.549 634.514 644.711 793.352 448.775 793.352C252.838 793.352 94 634.514 94 438.578C94 242.641 252.838 83.8031 448.775 83.8031C644.711 83.8031 803.549 242.641 803.549 438.578ZM129.477 438.578C129.477 614.921 272.432 757.875 448.775 757.875C625.117 757.875 768.072 614.921 768.072 438.578C768.072 262.235 625.117 119.281 448.775 119.281C272.432 119.281 129.477 262.235 129.477 438.578Z"/>
</mask>
<path d="M803.549 438.578C803.549 634.514 644.711 793.352 448.775 793.352C252.838 793.352 94 634.514 94 438.578C94 242.641 252.838 83.8031 448.775 83.8031C644.711 83.8031 803.549 242.641 803.549 438.578ZM129.477 438.578C129.477 614.921 272.432 757.875 448.775 757.875C625.117 757.875 768.072 614.921 768.072 438.578C768.072 262.235 625.117 119.281 448.775 119.281C272.432 119.281 129.477 262.235 129.477 438.578Z" stroke="#243B53" stroke-width="60" mask="url(#path-13-outside-1)"/>
<line x1="698.505" y1="725.162" x2="1005.95" y2="1014.87" stroke="#243B53" stroke-width="50" stroke-linecap="round" stroke-linejoin="round"/>
</svg>
