<svg width="1080" height="1080" viewBox="0 0 1080 1080" fill="none" xmlns="http://www.w3.org/2000/svg">
<path d="M827.5 118.48H731.667V80.16C731.667 75.0785 729.647 70.205 726.053 66.6118C722.458 63.0186 717.583 61 712.5 61H367.5C362.417 61 357.542 63.0186 353.947 66.6118C350.353 70.205 348.333 75.0785 348.333 80.16V118.48H252.5C237.25 118.48 222.625 124.536 211.841 135.316C201.058 146.095 195 160.715 195 175.96V961.52C195 976.765 201.058 991.385 211.841 1002.16C222.625 1012.94 237.25 1019 252.5 1019H827.5C842.75 1019 857.375 1012.94 868.159 1002.16C878.942 991.385 885 976.765 885 961.52V175.96C885 160.715 878.942 146.095 868.159 135.316C857.375 124.536 842.75 118.48 827.5 118.48V118.48ZM386.667 99.32H693.333V175.96H386.667V99.32ZM348.333 156.8V195.12C348.333 200.202 350.353 205.075 353.947 208.668C357.542 212.261 362.417 214.28 367.5 214.28H712.5C717.583 214.28 722.458 212.261 726.053 208.668C729.647 205.075 731.667 200.202 731.667 195.12V156.8H750.833C755.917 156.8 760.792 158.819 764.386 162.412C767.981 166.005 770 170.878 770 175.96V884.88C770 889.962 767.981 894.835 764.386 898.428C760.792 902.021 755.917 904.04 750.833 904.04H329.167C324.083 904.04 319.208 902.021 315.614 898.428C312.019 894.835 310 889.962 310 884.88V175.96C310 170.878 312.019 166.005 315.614 162.412C319.208 158.819 324.083 156.8 329.167 156.8H348.333ZM846.667 961.52C846.667 966.602 844.647 971.475 841.053 975.068C837.458 978.661 832.583 980.68 827.5 980.68H252.5C247.417 980.68 242.542 978.661 238.947 975.068C235.353 971.475 233.333 966.602 233.333 961.52V175.96C233.333 170.878 235.353 166.005 238.947 162.412C242.542 158.819 247.417 156.8 252.5 156.8H275.193C272.923 162.936 271.73 169.418 271.667 175.96V884.88C271.667 900.125 277.725 914.745 288.508 925.524C299.291 936.304 313.917 942.36 329.167 942.36H750.833C766.083 942.36 780.709 936.304 791.492 925.524C802.275 914.745 808.333 900.125 808.333 884.88V175.96C808.27 169.418 807.077 162.936 804.807 156.8H827.5C832.583 156.8 837.458 158.819 841.053 162.412C844.647 166.005 846.667 170.878 846.667 175.96V961.52Z" fill="#013D6E"/>
<path d="M387.1 751H539.9C544.966 751 549.824 748.946 553.406 745.289C556.988 741.632 559 736.672 559 731.5C559 726.328 556.988 721.368 553.406 717.711C549.824 714.054 544.966 712 539.9 712H387.1C382.034 712 377.176 714.054 373.594 717.711C370.012 721.368 368 726.328 368 731.5C368 736.672 370.012 741.632 373.594 745.289C377.176 748.946 382.034 751 387.1 751Z" fill="#013D6E"/>
<path d="M387.167 846H693.833C698.917 846 703.792 843.998 707.386 840.435C710.981 836.872 713 832.039 713 827C713 821.961 710.981 817.128 707.386 813.565C703.792 810.002 698.917 808 693.833 808H387.167C382.083 808 377.208 810.002 373.614 813.565C370.019 817.128 368 821.961 368 827C368 832.039 370.019 836.872 373.614 840.435C377.208 843.998 382.083 846 387.167 846Z" fill="#013D6E"/>
<line x1="378" y1="351" x2="378" y2="618" stroke="#013D6E" stroke-width="20"/>
<line x1="713" y1="628" x2="368" y2="628" stroke="#013D6E" stroke-width="20"/>
<rect x="403.5" y="467.5" width="55" height="158" stroke="#013D6E" stroke-width="15"/>
<rect x="484.5" y="363.5" width="55" height="262" stroke="#013D6E" stroke-width="15"/>
<rect x="565.5" y="484.5" width="55" height="141" stroke="#013D6E" stroke-width="15"/>
<rect x="646.5" y="530.5" width="55" height="95" stroke="#013D6E" stroke-width="15"/>
</svg>
