<svg xmlns="http://www.w3.org/2000/svg" xmlns:xlink="http://www.w3.org/1999/xlink" version="1.1" x="0px" y="0px" viewBox="0 0 1000 1000" enable-background="new 0 0 1000 1000" xml:space="preserve">
<g>
<path d="M500,990.3c-97.4,0-195.3-28.6-280.2-87c-11.1-7.7-13.9-22.9-6.3-34c7.7-11.2,22.9-13.9,34.1-6.3C423,983.6,660.3,963.2,811.8,814.1C963.1,665.4,984,432.7,861.4,260.8c-7.8-11-5.3-26.3,5.7-34.2c10.9-7.8,26.2-5.3,34.1,5.7C1037.9,424,1014.7,683.3,846.1,849C751.3,942.3,626.1,990.3,500,990.3z" style="&#10;fill: #CB6E17;&#10;"/>
<path d="M118.8,778.6c-7.6,0-15.2-3.6-20-10.3C-37.9,576.5-14.7,316.9,154,151.1C322.5-14.5,586.2-37.2,780.9,96.9c11.2,7.7,13.9,22.9,6.3,34c-7.7,11.2-23.2,13.8-34,6.3C577.5,16.2,340.1,36.8,188.3,186C36.9,334.8,16,567.8,138.8,739.9c7.8,11,5.3,26.3-5.7,34.1C128.7,777.1,123.8,778.6,118.8,778.6z" style="&#10;fill: #CB6E17;&#10;"/>
<path d="M678,149.9c-13.5,0-24.4-10.9-24.5-24.4c0-13.5,10.9-24.5,24.4-24.6l63.8-0.2l-22.8-56.1c-5.1-12.5,0.9-26.8,13.4-31.9c12.4-5.1,26.8,0.9,31.9,13.5l36.4,89.6c3.1,7.5,2.2,16.1-2.3,22.9c-4.5,6.8-12.1,10.8-20.2,10.9L678,149.9C678,149.9,678,149.9,678,149.9z" style="&#10;    fill: #CB6E17;&#10;"/>
<path d="M248.6,980.2c-9.7,0-18.9-5.8-22.7-15.4l-36.6-91.5c-3-7.5-2.1-16.1,2.5-22.9c4.6-6.7,12.1-10.7,20.3-10.7c0,0,0,0,0,0l98.1,0.2c13.5,0,24.5,11,24.4,24.5c0,13.5-11.9,26.1-24.5,24.4l-62-0.1l23.1,58c5,12.6-1.1,26.8-13.7,31.8C254.7,979.6,251.6,980.2,248.6,980.2z" style="&#10;    fill: #CB6E17;&#10;"/>
<path d="M623.3,646.6H378.7c-13.5,0-24.5-11-24.5-24.5v-96.4c0-13.5,11-24.5,24.5-24.5c13.5,0,24.5,11,24.5,24.5v71.9h195.6V427.1c0-13.5,11-24.5,24.5-24.5h45.6l-168.8-184l-169,184.6h50.6c13.5,0,24.5,11,24.5,24.5c0,13.5-11,24.5-24.5,24.5H275.6c-9.7,0-18.5-5.7-22.4-14.6c-3.9-8.9-2.2-19.2,4.4-26.4L482,165.9c4.6-5.1,11.2-8,18.1-8l0,0c6.9,0,13.4,2.9,18.1,7.9l224.4,244.7c6.6,7.1,8.3,17.5,4.4,26.4c-3.9,8.9-12.7,14.6-22.4,14.6h-76.7v170.5C647.7,635.6,636.8,646.6,623.3,646.6z" style="fill: #199473;"/><path d="M622.4,748.3H377.7c-13.5,0-24.5-11-24.5-24.5c0-13.5,11-24.5,24.5-24.5h244.7c13.5,0,24.5,11,24.5,24.5C646.9,737.3,635.9,748.3,622.4,748.3z" style="&#10;    fill: #199473;&#10;"/><path d="M573.4,843.9H426.6c-13.5,0-24.5-11-24.5-24.5c0-13.5,11-24.5,24.5-24.5h146.8c13.5,0,24.5,11,24.5,24.5C597.9,832.9,586.9,843.9,573.4,843.9z" style="&#10;    fill: #199473;&#10;"/></g>
</svg>