<svg version='1.1' id='icon-schema' xmlns='http://www.w3.org/2000/svg' x='0px' y='0px'
     viewBox='0 0 480 480' xml:space='preserve'>
<g>
	<path style="fill:#78B9EB;" d="M288,88h-96v48h48h48V88z"/>
  <path style="fill:#78B9EB;" d="M64,264h48h48v-48h-48H64V264z"/>
  <path style="fill:#78B9EB;" d="M8,392h80v-48H48H8V392z"/>
  <path style="fill:#78B9EB;" d="M264,392h80v-48h-40h-40V392z"/>
  <path style="fill:#78B9EB;" d="M416,216h-48h-48v48h48h48V216z"/>
</g>
  <path style="fill:#1E81CE;" d="M472,336h-32v-32c0-4.418-3.582-8-8-8h-56v-24h40c4.418,0,8-3.582,8-8v-48c0-4.418-3.582-8-8-8h-40
	v-32c0-4.418-3.582-8-8-8H248v-24h40c4.418,0,8-3.582,8-8V88c0-4.418-3.582-8-8-8h-96c-4.418,0-8,3.582-8,8v48c0,4.418,3.582,8,8,8
	h40v24H112c-4.418,0-8,3.582-8,8v32H64c-4.418,0-8,3.582-8,8v48c0,4.418,3.582,8,8,8h40v24H48c-4.418,0-8,3.582-8,8v32H8
	c-4.418,0-8,3.582-8,8v48c0,4.418,3.582,8,8,8h80c4.418,0,8-3.582,8-8v-48c0-4.418-3.582-8-8-8H56v-24h112v24h-32
	c-4.418,0-8,3.582-8,8v48c0,4.418,3.582,8,8,8h80c4.418,0,8-3.582,8-8v-48c0-4.418-3.582-8-8-8h-32v-32c0-4.418-3.582-8-8-8h-56v-24
	h40c4.418,0,8-3.582,8-8v-48c0-4.418-3.582-8-8-8h-40v-24h240v24h-40c-4.418,0-8,3.582-8,8v48c0,4.418,3.582,8,8,8h40v24h-56
	c-4.418,0-8,3.582-8,8v32h-32c-4.418,0-8,3.582-8,8v48c0,4.418,3.582,8,8,8h80c4.418,0,8-3.582,8-8v-48c0-4.418-3.582-8-8-8h-32v-24
	h112v24h-32c-4.418,0-8,3.582-8,8v48c0,4.418,3.582,8,8,8h80c4.418,0,8-3.582,8-8v-48C480,339.582,476.418,336,472,336z M200,96h80
	v32h-80V96z M80,384H16v-32h64V384z M208,384h-64v-32h64V384z M152,256H72v-32h80V256z M328,224h80v32h-80V224z M336,384h-64v-32h64
	V384z M464,384h-64v-32h64V384z"/>
  <g>
</g>
  <g>
</g>
  <g>
</g>
  <g>
</g>
  <g>
</g>
  <g>
</g>
  <g>
</g>
  <g>
</g>
  <g>
</g>
  <g>
</g>
  <g>
</g>
  <g>
</g>
  <g>
</g>
  <g>
</g>
  <g>
</g>
</svg>
