<svg viewBox="0 0 512 512">
    <path fill="currentColor" d="M261.722 93l-56-50H0v426h512V93H261.722zM482 439H30V173h452v266zm0-296H30V73h164.278l56 50H482v20z" />
    <path fill="currentColor" d="M256 191c-63.411 0-115 51.589-115 115s51.589 115 115 115 115-51.589 115-115-51.589-115-115-115zm0 200c-46.869 0-85-38.131-85-85s38.131-85 85-85 85 38.131 85 85-38.131 85-85 85z"
    />
    <path fill="currentColor" d="M220.401 285.52l-33.92 20.64v7.04l33.92 20v-16.96l-11.84-6.96 11.84-7.6zM268.32 273.2L227.121 330h16.719l41.281-56.8zM291.599 285.52v16.16l11.84 7.6-11.84 6.96v16.96l33.92-20v-7.04z"
    />
</svg>