<svg width="420" height="98" xmlns="http://www.w3.org/2000/svg" xmlns:svg="http://www.w3.org/2000/svg">
 <metadata id="metadata8">image/svg+xml</metadata>
 <defs>
  <clipPath clipPathUnits="userSpaceOnUse" id="clipPath20">
   <path d="m0,475l1366,0l0,-475l-1366,0l0,475z" id="path18"/>
  </clipPath>
  <clipPath clipPathUnits="userSpaceOnUse" id="clipPath84">
   <path d="m117.6,194.083l88.769,0l0,-89.238l-88.769,0l0,89.238z" id="path82"/>
  </clipPath>
  <clipPath clipPathUnits="userSpaceOnUse" id="clipPath272">
   <path d="m837.205,202.2l-15.191,-10.217l-10.124,-15.254l-3.517,-17.965l3.626,-17.946l10.218,-15.19l15.253,-10.125l17.966,-3.517l17.945,3.627l15.19,10.218l10.125,15.252l3.517,17.967l-3.627,17.945l-10.217,15.19l-15.253,10.125l-17.967,3.516l-17.944,-3.626zm26.209,-38.553l0,19.324l11.823,0l0,-48.31l-11.823,0l0,18.918l-17.567,0l0,-18.918l-11.824,0l0,48.31l11.824,0l0,-19.324l17.567,0z" id="path270"/>
  </clipPath>
  <clipPath clipPathUnits="userSpaceOnUse" id="clipPath280">
   <path d="m810.6,202.083l88.769,0l0,-89.238l-88.769,0l0,89.238z" id="path278"/>
  </clipPath>
  <clipPath clipPathUnits="userSpaceOnUse" id="clipPath296">
   <path d="m-983.25009,525.25001l1366,0l0,-475l-1366,0l0,475z" id="path294"/>
  </clipPath>
  <clipPath clipPathUnits="userSpaceOnUse" id="clipPath464">
   <path d="m306.715,200.117l68.368,0l0,-68.728l-68.368,0l0,68.728z" id="path462"/>
  </clipPath>
  <clipPath clipPathUnits="userSpaceOnUse" id="clipPath540">
   <path d="m342.025,100.612l32.921,0l0,-33.0945l-32.921,0l0,33.0945z" id="path538"/>
  </clipPath>
  <clipPath clipPathUnits="userSpaceOnUse" id="clipPath616">
   <path d="m796.6,415.083l88.769,0l0,-89.238l-88.769,0l0,89.238z" id="path614"/>
  </clipPath>
  <clipPath clipPathUnits="userSpaceOnUse" id="clipPath692">
   <path d="m2.46491,471.36701l68.365,0l0,-68.729l-68.365,0l0,68.729z" id="path690"/>
  </clipPath>
  <clipPath clipPathUnits="userSpaceOnUse" id="clipPath768">
   <path d="m1021.03,321.612l32.92,0l0,-33.094l-32.92,0l0,33.094z" id="path766"/>
  </clipPath>
  <clipPath clipPathUnits="userSpaceOnUse" id="clipPath904">
   <path d="m1025.131,202.156l-10.298,-6.927l-6.864,-10.34l-2.384,-12.179l2.459,-12.164l6.926,-10.298l10.341,-6.865l12.178,-2.383l12.166,2.458l10.298,6.927l6.862,10.34l2.384,12.179l-2.458,12.165l-6.926,10.298l-10.34,6.863l-12.18,2.384l-12.164,-2.458zm17.766,-26.136l0,13.1l8.016,0l0,-32.749l-8.016,0l0,12.824l-11.907,0l0,-12.824l-8.017,0l0,32.749l8.017,0l0,-13.1l11.907,0z" id="path902"/>
  </clipPath>
  <clipPath clipPathUnits="userSpaceOnUse" id="clipPath912">
   <path d="m1007.1,202.076l60.17,0l0,-60.494l-60.17,0l0,60.494z" id="path910"/>
  </clipPath>
  <clipPath clipPathUnits="userSpaceOnUse" id="clipPath928">
   <path d="m0,475l1366,0l0,-475l-1366,0l0,475z" id="path926"/>
  </clipPath>
  <clipPath clipPathUnits="userSpaceOnUse" id="clipPath1052">
   <path d="m1043.773,109.007l-5.894,-3.964l-3.928,-5.92l-1.366,-6.971l1.407,-6.963l3.965,-5.895l5.919,-3.93l6.973,-1.364l6.962,1.407l5.895,3.965l3.93,5.919l1.364,6.972l-1.407,6.963l-3.965,5.895l-5.919,3.928l-6.972,1.366l-6.964,-1.408zm10.171,-14.96l0,7.498l4.588,0l0,-18.746l-4.588,0l0,7.341l-6.817,0l0,-7.341l-4.588,0l0,18.746l4.588,0l0,-7.498l6.817,0z" id="path1050"/>
  </clipPath>
  <clipPath clipPathUnits="userSpaceOnUse" id="clipPath1060">
   <path d="m1033.45,108.962l34.45,0l0,-34.629l-34.45,0l0,34.629z" id="path1058"/>
  </clipPath>
  <clipPath clipPathUnits="userSpaceOnUse" id="clipPath1076">
   <path d="m0,475l1366,0l0,-475l-1366,0l0,475z" id="path1074"/>
  </clipPath>
  <clipPath clipPathUnits="userSpaceOnUse" id="clipPath1088">
   <path d="m295.519,374.447l60.542,0l0,-60.862l-60.542,0l0,60.862z" id="path1086"/>
  </clipPath>
  <clipPath clipPathUnits="userSpaceOnUse" id="clipPath1112">
   <path d="m138.038,403.893l121.084,0l0,-121.722l-121.084,0l0,121.722z" id="path1110"/>
  </clipPath>
  <clipPath clipPathUnits="userSpaceOnUse" id="clipPath1136">
   <path d="m386.759,359.723l30.271,0l0,-30.43l-30.271,0l0,30.43z" id="path1134"/>
  </clipPath>
  <clipPath clipPathUnits="userSpaceOnUse" id="clipPath1160">
   <path d="m439.38,352.362l15.135,0l0,-15.216l-15.135,0l0,15.216z" id="path1158"/>
  </clipPath>
 </defs>
 <g class="layer">
  <title>Layer 1</title>
  <g id="g10" transform="matrix(1.33333 0 0 -1.33333 0 633.333)">
   <g id="g290">
    <g clip-path="url(#clipPath296)" id="g292">
     <g id="g630" transform="translate(1069.51 379.033)">
      <path d="m-983.25009,50.25001l0,20.438l4.945,0l0,-6.459l-0.056,-1.258l0.056,0c0.419,0.723 1.03,1.296 1.83,1.715c0.8,0.418 1.687,0.629 2.659,0.629c3.525,0 5.288,-1.84 5.288,-5.518l0,-9.547l-4.946,0l0,8.633c0,1.295 -0.543,1.944 -1.629,1.944c-1.029,0 -1.82,-0.363 -2.373,-1.087c-0.552,-0.724 -0.829,-1.677 -0.829,-2.859l0,-6.631l-4.945,0z" fill="#ffffff" fill-rule="nonzero" id="path632"/>
     </g>
     <g id="g634" transform="translate(1088.77 377.69)">
      <path d="m-983.25009,50.25001c0.533,-0.362 1.038,-0.543 1.515,-0.543c1.181,0 1.972,0.496 2.373,1.486l0.285,0.686l-6.26,14.435l5.603,0l2.172,-6.774l0.543,-2.287l0.057,0c0.191,0.934 0.353,1.667 0.486,2.202l1.859,6.859l5.402,0l-6.031,-16.293c-0.572,-1.524 -1.415,-2.644 -2.53,-3.359c-1.115,-0.715 -2.321,-1.072 -3.617,-1.072c-0.571,0 -1.143,0.087 -1.714,0.258c-0.573,0.172 -1.001,0.342 -1.287,0.514l-0.428,0.258l1.572,3.63z" fill="#ffffff" fill-rule="nonzero" id="path636"/>
     </g>
     <g id="g638" transform="translate(1110.7 388.981)">
      <path d="m-983.25009,50.25001c-0.553,-0.629 -0.828,-1.486 -0.828,-2.572c0,-1.087 0.266,-1.964 0.8,-2.63c0.533,-0.668 1.229,-1.001 2.087,-1.001c0.819,0 1.504,0.305 2.058,0.914c0.552,0.61 0.828,1.517 0.828,2.717c0,0.952 -0.252,1.777 -0.757,2.471c-0.504,0.696 -1.214,1.045 -2.129,1.045c-0.82,0 -1.506,-0.315 -2.059,-0.944m-3.987,-8.161c-1.21,1.419 -1.815,3.283 -1.815,5.589c0,2.305 0.623,4.163 1.872,5.574c1.248,1.41 2.863,2.115 4.845,2.115c1.791,0 3.078,-0.391 3.859,-1.173l0.058,0c-0.02,0.191 -0.029,0.411 -0.029,0.658l0,5.889l4.945,0l0,-20.439l-4.631,0l0,0.972l0.029,0.829l-0.057,0c-0.934,-1.429 -2.355,-2.144 -4.26,-2.144c-2,0 -3.606,0.71 -4.816,2.13" fill="#ffffff" fill-rule="nonzero" id="path640"/>
     </g>
     <g id="g642" transform="translate(1125.19 379.033)">
      <path d="m-983.25009,50.25001l0,14.721l4.745,0l0,-2.486l-0.057,-0.915l0.057,0c0.324,1.029 0.919,1.896 1.787,2.602c0.867,0.704 1.834,1.057 2.902,1.057c0.152,0 0.342,-0.019 0.571,-0.057l0,-4.859c-0.171,0.057 -0.505,0.085 -1,0.085c-1.334,0 -2.344,-0.391 -3.03,-1.171c-0.686,-0.782 -1.03,-1.869 -1.03,-3.26l0,-5.717l-4.945,0z" fill="#ffffff" fill-rule="nonzero" id="path644"/>
     </g>
     <g id="g646" transform="translate(1142.86 386.352)">
      <path d="m-983.25009,50.25001c0,-1.068 0.324,-1.925 0.972,-2.573c0.647,-0.649 1.438,-0.972 2.373,-0.972c0.933,0 1.723,0.323 2.372,0.972c0.648,0.648 0.971,1.505 0.971,2.573c0,1.086 -0.323,1.962 -0.971,2.629c-0.649,0.668 -1.439,1.001 -2.372,1.001c-0.935,0 -1.726,-0.333 -2.373,-1.001c-0.648,-0.667 -0.972,-1.543 -0.972,-2.629m-2.602,-5.532c-1.6,1.42 -2.401,3.264 -2.401,5.532c0,2.267 0.801,4.126 2.401,5.574c1.601,1.448 3.574,2.173 5.917,2.173c2.364,0 4.35,-0.72 5.961,-2.159c1.61,-1.439 2.415,-3.302 2.415,-5.588c0,-2.268 -0.8,-4.112 -2.401,-5.532c-1.601,-1.419 -3.583,-2.13 -5.945,-2.13c-2.364,0 -4.346,0.711 -5.947,2.13" fill="#ffffff" fill-rule="nonzero" id="path648"/>
     </g>
     <g id="g650" transform="translate(1157.72 380.806)">
      <path d="m-983.25009,50.25001l1.315,1.886c1.163,-1.124 2.582,-1.687 4.259,-1.687c0.743,0 1.339,0.167 1.787,0.501c0.448,0.333 0.672,0.796 0.672,1.386c0,0.496 -0.258,0.925 -0.772,1.287c-0.514,0.361 -1.134,0.676 -1.858,0.942c-0.724,0.267 -1.449,0.563 -2.173,0.887c-0.724,0.324 -1.343,0.796 -1.858,1.415c-0.515,0.619 -0.771,1.367 -0.771,2.244c0,1.315 0.495,2.339 1.486,3.073c0.991,0.733 2.229,1.101 3.716,1.101c1.944,0 3.507,-0.535 4.688,-1.601l-1.115,-2.001c-0.419,0.4 -0.967,0.714 -1.644,0.943c-0.675,0.229 -1.348,0.343 -2.015,0.343c-0.742,0 -1.339,-0.153 -1.786,-0.457c-0.448,-0.305 -0.672,-0.753 -0.672,-1.344c0,-0.514 0.258,-0.953 0.772,-1.314c0.515,-0.363 1.133,-0.673 1.858,-0.93c0.724,-0.257 1.453,-0.548 2.187,-0.872c0.734,-0.324 1.358,-0.796 1.872,-1.414c0.515,-0.62 0.772,-1.368 0.772,-2.244c0,-1.24 -0.486,-2.259 -1.458,-3.059c-0.972,-0.801 -2.22,-1.201 -3.744,-1.201c-2.288,0 -4.127,0.705 -5.518,2.116" fill="#ffffff" fill-rule="nonzero" id="path652"/>
     </g>
     <g id="g654" transform="translate(1175.84 386.208)">
      <path d="m-983.25009,50.25001c0,-1.372 0.366,-2.568 1.101,-3.588c0.733,-1.019 1.729,-1.529 2.987,-1.529c1.182,0 2.173,0.462 2.973,1.387c0.8,0.924 1.2,2.176 1.2,3.758c0,1.562 -0.376,2.816 -1.128,3.759c-0.754,0.944 -1.74,1.416 -2.959,1.416c-1.182,0 -2.173,-0.439 -2.974,-1.315c-0.8,-0.877 -1.2,-2.174 -1.2,-3.888m-2.687,-12.892l0,20.181l2.573,0l0,-1.287l-0.086,-1.085l0.057,0c0.457,0.857 1.115,1.523 1.972,2.001c0.859,0.476 1.82,0.715 2.888,0.715c1.943,0 3.487,-0.697 4.631,-2.088c1.143,-1.391 1.715,-3.22 1.715,-5.488c0,-2.287 -0.611,-4.121 -1.83,-5.503c-1.219,-1.382 -2.792,-2.073 -4.716,-2.073c-1.925,0 -3.421,0.82 -4.489,2.459l-0.056,0c0.076,-0.342 0.114,-0.763 0.114,-1.257l0,-6.575l-2.773,0z" fill="#ffffff" fill-rule="nonzero" id="path656"/>
     </g>
     <g id="g658" transform="translate(1191.77 379.033)">
      <path d="m-983.25009,50.25001l0,20.182l2.773,0l0,-7.49l-0.114,-1.2l0.057,0c0.4,0.838 1.076,1.601 2.03,2.286c0.952,0.686 2.086,1.03 3.401,1.03c3.297,0 4.946,-1.85 4.946,-5.546l0,-9.262l-2.774,0l0,8.633c0,1.162 -0.185,2.058 -0.556,2.687c-0.372,0.629 -1.092,0.944 -2.159,0.944c-1.391,0 -2.543,-0.511 -3.458,-1.53c-0.916,-1.019 -1.373,-2.311 -1.373,-3.874l0,-6.86l-2.773,0z" fill="#ffffff" fill-rule="nonzero" id="path660"/>
     </g>
     <g id="g662" transform="translate(1212.46 387.895)">
      <path d="m-983.25009,50.25001l7.747,0c-0.039,1.201 -0.387,2.134 -1.044,2.801c-0.657,0.667 -1.481,1.001 -2.473,1.001c-1.085,0 -2.015,-0.339 -2.787,-1.015c-0.771,-0.677 -1.253,-1.606 -1.443,-2.787m-2.973,-1.629c0,2.267 0.686,4.097 2.058,5.488c1.372,1.391 3.106,2.087 5.202,2.087c1.963,0 3.497,-0.643 4.603,-1.93c1.105,-1.286 1.658,-2.901 1.658,-4.845c0,-0.249 -0.038,-0.639 -0.114,-1.172l-10.52,0c0.076,-1.506 0.586,-2.683 1.529,-3.53c0.944,-0.849 2.091,-1.273 3.445,-1.273c1.582,0 3.002,0.562 4.259,1.687l1.172,-2.029c-0.686,-0.63 -1.539,-1.129 -2.558,-1.501c-1.02,-0.373 -2.034,-0.558 -3.044,-0.558c-2.249,0 -4.093,0.72 -5.531,2.159c-1.44,1.438 -2.159,3.244 -2.159,5.417" fill="#ffffff" fill-rule="nonzero" id="path664"/>
     </g>
     <g id="g666" transform="translate(1227.78 379.033)">
      <path d="m-983.25009,50.25001l0,14.464l2.688,0l0,-2.601l-0.086,-1.057l0.057,0c0.362,1.104 0.952,2.019 1.773,2.744c0.818,0.723 1.761,1.086 2.829,1.086c0.19,0 0.438,-0.019 0.743,-0.057l0,-2.744c-0.152,0.038 -0.419,0.057 -0.8,0.057c-1.448,0 -2.549,-0.586 -3.302,-1.759c-0.753,-1.171 -1.129,-2.548 -1.129,-4.13l0,-6.003l-2.773,0z" fill="#ffffff" fill-rule="nonzero" id="path668"/>
     </g>
     <g id="g670" transform="translate(1241.62 387.895)">
      <path d="m-983.25009,50.25001l7.747,0c-0.038,1.201 -0.386,2.134 -1.043,2.801c-0.658,0.667 -1.482,1.001 -2.474,1.001c-1.085,0 -2.014,-0.339 -2.787,-1.015c-0.771,-0.677 -1.253,-1.606 -1.443,-2.787m-2.973,-1.629c0,2.267 0.687,4.097 2.058,5.488c1.372,1.391 3.106,2.087 5.203,2.087c1.963,0 3.496,-0.643 4.602,-1.93c1.105,-1.286 1.658,-2.901 1.658,-4.845c0,-0.249 -0.038,-0.639 -0.114,-1.172l-10.52,0c0.076,-1.506 0.586,-2.683 1.529,-3.53c0.944,-0.849 2.092,-1.273 3.446,-1.273c1.581,0 3.001,0.562 4.258,1.687l1.172,-2.029c-0.685,-0.63 -1.539,-1.129 -2.557,-1.501c-1.021,-0.373 -2.035,-0.558 -3.045,-0.558c-2.249,0 -4.093,0.72 -5.531,2.159c-1.44,1.438 -2.159,3.244 -2.159,5.417" fill="#ffffff" fill-rule="nonzero" id="path672"/>
     </g>
     <path d="m273.54891,432.28501l2.973,0l0,-3.002l-2.973,0l0,3.002z" fill="#ffffff" fill-rule="nonzero" id="path674"/>
     <path d="m282.09591,443.74801l2.772,0l0,-14.464l-2.772,0l0,14.464z" fill="#ffffff" fill-rule="nonzero" id="path676"/>
     <g id="g678" transform="translate(1275.69 386.294)">
      <path d="m-983.25009,50.25001c0,-1.506 0.48,-2.75 1.443,-3.73c0.962,-0.982 2.14,-1.473 3.531,-1.473c1.372,0 2.544,0.496 3.516,1.487c0.972,0.99 1.457,2.23 1.457,3.716c0,1.487 -0.485,2.716 -1.457,3.688c-0.972,0.971 -2.144,1.457 -3.516,1.457c-1.391,0 -2.569,-0.486 -3.531,-1.457c-0.963,-0.972 -1.443,-2.201 -1.443,-3.688m-2.83,0c0,2.154 0.752,3.949 2.258,5.389c1.506,1.438 3.344,2.158 5.517,2.158c2.192,0 4.04,-0.714 5.545,-2.144c1.506,-1.429 2.259,-3.23 2.259,-5.403c0,-2.172 -0.753,-3.983 -2.259,-5.431c-1.505,-1.448 -3.344,-2.173 -5.516,-2.173c-2.173,0 -4.017,0.725 -5.532,2.173c-1.514,1.448 -2.272,3.259 -2.272,5.431" fill="#ffffff" fill-rule="nonzero" id="path680"/>
     </g>
     <g id="g682" transform="translate(1020.03 424)">
      <path d="m-983.25009,50.25001l-13.82,-2.793l-11.7,-7.869l-7.797,-11.747l-2.708,-13.838l2.793,-13.82l7.869,-11.7l11.747,-7.797l13.837,-2.708l13.82,2.793l11.7,7.869l7.797,11.747l2.709,13.837l-2.793,13.82l-7.869,11.7l-11.747,7.798l-13.838,2.708z" fill="#178cf2" fill-rule="nonzero" id="path684"/>
     </g>
     <g id="g686">
      <g id="g688"/>
      <g id="g700">
       <g clip-path="url(#clipPath692)" id="g698" opacity="0.25">
        <g id="g696" transform="translate(1043.57 377.481)">
         <path d="m-983.25009,50.25001l-5.616,9.626l14.54,0l-8.924,-9.626zm-9.028,-3.045l3.064,12.256l5.536,-9.491l-8.6,-2.765zm-14.283,12.5l0.165,0.171l16.759,0l-3.214,-12.855l-0.777,-0.25l-12.933,12.934zm9.868,-23.39l3.2,9.601l10.4,-10.401l-13.6,0.8zm-10.4,5.333l9.638,-5.622l-9.638,-9.637l0,15.259zm-8.676,-4.31l-2.319,9.926l10.213,-5.189l-7.894,-4.737zm-12.512,-0.144l9.105,9.437l0.364,-0.102l-0.141,0.333l0.35,0.363l2.344,-10.031l-12.022,0zm3.519,21.978l5.065,-11.867l-9.638,2.687l4.119,9.884l0.436,0l0.208,-0.354l0.12,0.354l16.848,0l0,-0.517l-10.91,-11.307l-0.32,0.163l0.093,-0.399l-0.43,-0.445l-5.121,12.001c-0.056,0.13 -0.204,0.19 -0.335,0.135c-0.13,-0.056 -0.19,-0.206 -0.135,-0.335m-13.788,0.704l12.781,0l-3.994,-9.586l-8.787,9.586zm8.8,8.458l4.67,-7.948l-14.406,0l9.736,7.948zm21.823,10.292l-11.826,-5.125l3.941,9.461l7.885,-4.336zm9.607,4.756l-8.595,-4.738l-0.178,0.102l0,13.409l8.773,-8.773zm2.668,-11.637l-0.308,0.538l-0.034,0.06l-10.405,6.003l8.4,4.631l4.832,-8.657l-2.485,-2.575zm11.306,10.983l0.772,-12.787l-9.919,3.306l0.609,0.632c0.041,-0.027 0.088,-0.045 0.138,-0.045c0.043,0 0.085,0.01 0.125,0.032c0.122,0.069 0.167,0.224 0.098,0.347l-0.014,0.025l8.191,8.49zm9.984,-22.342l-13.968,0l5.088,8.78l8.88,-8.78zm-19.468,12.512c0.029,-0.057 0.079,-0.103 0.144,-0.125l10.011,-3.337l-5.245,-9.05l-0.241,0l-6.228,10.897l1.559,1.615zm-1.928,-1.998l6.009,-10.514l-16.154,0l10.145,10.514zm-11.335,-10.514l0,17.771l10.724,-6.187l0.348,-0.608l-10.591,-10.976l-0.481,0zm-12.693,12.544l12.182,5.28l0,-17.463l-12.182,12.183zm-4.91,-12.191l-4.621,7.866l8.652,3.934l-4.031,-11.8zm4.573,11.806l12.159,-12.159l-16.313,0l4.154,12.159zm2.086,-24.734l10.433,10.814l0,-16.116l-10.433,5.302zm10.944,-5.368l0,16.71l0.178,0.184l12.741,-12.741l-12.919,-4.153zm9.909,-5.984l-9.542,5.566l12.766,4.103l-3.224,-9.669zm24.194,23.927l-0.647,0l-9.215,9.112l7.389,3.284c0.128,0.057 0.187,0.208 0.129,0.337c-0.057,0.129 -0.208,0.187 -0.337,0.13l-7.393,-3.287l-0.801,13.264l0.752,0.778c0.097,0.102 0.094,0.264 -0.007,0.361c-0.102,0.097 -0.263,0.095 -0.36,-0.006l-9.317,-9.655l-4.682,8.39l13.339,0.833c0.14,0.009 0.247,0.13 0.239,0.271c-0.009,0.14 -0.115,0.249 -0.271,0.239l-13.302,-0.832l4.097,8.193c0.064,0.126 0.013,0.279 -0.114,0.342c-0.126,0.063 -0.279,0.012 -0.342,-0.114l-4.137,-8.273l-9.123,9.124l0,0.753c0,0.141 -0.114,0.255 -0.255,0.255c-0.141,0 -0.256,-0.114 -0.256,-0.255l0,-14.6l-7.942,4.368l7.536,9.212c0.089,0.109 0.073,0.269 -0.036,0.358c-0.108,0.09 -0.269,0.074 -0.358,-0.035l-7.492,-9.158l-4.113,7.402c-0.069,0.124 -0.224,0.166 -0.347,0.099c-0.123,-0.068 -0.167,-0.223 -0.099,-0.347l4.211,-7.578l-0.085,-0.104l0.068,-0.038l-4.06,-9.744l-10.898,10.897c-0.099,0.1 -0.26,0.1 -0.36,0c-0.1,-0.099 -0.1,-0.261 0,-0.361l10.906,-10.906l-8.778,-3.99l-0.834,12.517c-0.01,0.141 -0.129,0.249 -0.272,0.237c-0.14,-0.009 -0.247,-0.13 -0.238,-0.271l0.833,-12.494l-9.08,3.302c-0.133,0.048 -0.279,-0.021 -0.327,-0.153c-0.048,-0.132 0.02,-0.279 0.152,-0.326l9.027,-3.283l-10.104,-8.248l-0.553,0c-0.141,0 -0.256,-0.114 -0.256,-0.255c0,-0.141 0.115,-0.255 0.256,-0.255l1.606,0l9.262,-10.105l-0.048,-0.116l0.078,-0.021l-0.846,-12.678c-0.009,-0.141 0.098,-0.262 0.238,-0.271c0.006,-0.001 0.012,-0.001 0.018,-0.001c0.133,0 0.245,0.103 0.254,0.238l0.838,12.572l9.712,-2.707l-9.328,-9.667l-1.661,-1.722c-0.097,-0.101 -0.094,-0.263 0.007,-0.36c0.05,-0.048 0.113,-0.072 0.177,-0.072c0.067,0 0.134,0.026 0.184,0.078l1.583,1.64l12.709,0l7.653,-10.205c0.05,-0.067 0.127,-0.102 0.204,-0.102c0.054,0 0.107,0.016 0.153,0.051c0.113,0.084 0.135,0.244 0.051,0.357l-7.56,10.081l7.959,4.776l0,-16.485l10.494,10.492l4.136,-8.272c0.063,-0.126 0.216,-0.178 0.342,-0.114c0.126,0.063 0.177,0.216 0.114,0.342l-4.097,8.195l14.832,-0.873l-11.439,11.438l0.228,0.073c-0.027,-0.132 0.053,-0.264 0.186,-0.298c0.021,-0.005 0.041,-0.007 0.062,-0.007c0.115,0 0.219,0.077 0.248,0.193l0.074,0.296l9.01,2.896l0.07,-0.12l0.122,0.132l7.575,-2.525c0.134,-0.046 0.278,0.028 0.323,0.161c0.044,0.134 -0.029,0.278 -0.162,0.323l-7.355,2.451l9.211,9.936l0.64,0c0.141,0 0.256,0.114 0.256,0.255c0,0.141 -0.115,0.255 -0.256,0.255" fill="#ffffff" fill-rule="nonzero" id="path694"/>
        </g>
       </g>
      </g>
     </g>
     <g id="g702" transform="translate(1003.75 369.19)">
      <path d="m-983.25009,50.25001l0,37.207l9.106,0l0,-14.883l13.53,0l0,14.883l9.106,0l0,-37.207l-9.106,0l0,14.57l-13.53,0l0,-14.57l-9.106,0z" fill="#ffffff" fill-rule="nonzero" id="path704"/>
     </g>
    </g>
   </g>
  </g>
 </g>
</svg>