<?xml version="1.0" encoding="iso-8859-1"?>
<svg version="1.1" id="Capa_1" xmlns="http://www.w3.org/2000/svg" x="0px"
     y="0px"
     width="612px" height="612px" viewBox="0 0 612 612" xml:space="preserve">
<g>
	<g id="_x31_0_25_">
		<g>
			<path fill="currentColor" d="M306,0C136.992,0,0,136.992,0,306s136.992,306,306,306c168.988,0,306-136.992,306-306S475.008,0,306,0z M306,573.75
				C158.125,573.75,38.25,453.875,38.25,306C38.25,158.125,158.125,38.25,306,38.25c147.875,0,267.75,119.875,267.75,267.75
				C573.75,453.875,453.875,573.75,306,573.75z M392.751,142.749c-7.478-7.478-19.584-7.478-27.043,0l-146.44,146.44
				c-4.59,4.59-6.005,10.863-4.953,16.811c-1.052,5.929,0.382,12.221,4.953,16.811l146.44,146.44c7.479,7.459,19.584,7.459,27.043,0
				c7.478-7.478,7.478-19.584,0-27.043L256.543,306l136.188-136.189C400.21,162.333,400.21,150.227,392.751,142.749z"/>
		</g>
	</g>
</g>
  <g>
</g>
</svg>
